<svg width="19" height="17" viewBox="0 0 19 17" fill="none" xmlns="http://www.w3.org/2000/svg">
<path d="M15.6633 0.50143C15.3972 0.507344 15.1251 0.554659 14.8678 0.640418C13.2887 1.1668 12.366 2.35856 11.8633 3.26052C11.4079 3.02098 10.8933 2.87312 10.3374 2.87312H10.0357L8.82328 4.08262C7.83853 3.63017 6.85377 3.47935 5.7182 3.63017C2.84378 3.85788 0.344924 6.27984 0.0432881 9.23411C-0.184419 11.2007 0.495743 13.1702 1.85902 14.6074C3.07148 15.8198 4.7364 16.5 6.40132 16.5C6.70295 16.5 6.93066 16.5 7.23229 16.4261C10.1866 16.0475 12.5316 13.6995 12.9102 10.6713C12.9871 9.53574 12.8362 8.4741 12.4577 7.56623L13.5933 6.43066V6.12902C13.5933 5.4459 13.3892 4.81306 13.0373 4.29259C13.3715 3.61834 14.0871 2.49755 15.3469 2.07763C15.9029 1.89132 16.1986 1.99778 16.3731 2.29942C16.5505 2.5981 16.6392 3.41429 15.9443 4.80419C15.4001 5.82147 13.7471 8.64266 14.9329 12.9986L12.8362 13.2441L14.8028 14.2289L13.2887 16.3492L15.6367 15.0598L16.5475 16.3492V14.6813L18.9666 15.5152L17.3785 13.9243L18.6649 12.9425H17V9.68656L16.1335 11.4609C15.5805 8.30258 16.7398 6.53416 17.2898 5.49913C17.2928 5.49618 17.2957 5.49026 17.2987 5.48435C18.1178 3.84605 18.245 2.50347 17.6831 1.53646C17.4022 1.05443 16.9556 0.743921 16.4529 0.596061C16.2015 0.525087 15.9324 0.492558 15.6633 0.50143ZM10.639 4.38722C11.3221 4.53804 11.9284 5.07034 12.0792 5.82739L11.3961 6.50755C10.639 6.43066 10.0357 5.82739 9.95885 5.07034L10.639 4.38722ZM6.47525 5.07034C7.23229 5.07034 7.91541 5.2182 8.52164 5.59672C8.82328 6.80918 9.73115 7.71705 10.9436 7.94476C11.3221 8.70181 11.473 9.53574 11.3961 10.5175C11.1713 12.7887 9.27869 14.6843 7.08443 14.912C5.57034 15.0628 4.05328 14.6074 2.9946 13.4718C1.93591 12.4131 1.40361 10.8961 1.55739 9.38197C1.78213 7.18771 3.67771 5.29509 5.87197 5.14427C6.09968 5.14427 6.32443 5.07034 6.47525 5.07034Z" fill="white"/>
</svg>
