<svg width="24" height="24" viewBox="0 0 24 24" fill="none" xmlns="http://www.w3.org/2000/svg">
<g clip-path="url(#clip0_735_6586)">
<path d="M24 12.6886C24 10.4061 22.7013 8.12215 20.4369 6.42225C18.1393 4.69743 15.143 3.74756 12 3.74756C8.85695 3.74756 5.86068 4.69748 3.56311 6.42225C1.2987 8.12215 0 10.4062 0 12.6886C0 14.2395 1.31656 15.677 4.02213 17.0776C3.9074 17.3132 3.80382 17.554 3.71361 17.7998C3.66886 17.9223 3.64621 18.0496 3.64621 18.1782C3.64621 18.5576 3.84706 18.9156 4.17117 19.1129C4.74209 19.4589 5.3618 19.7686 6.01345 20.0334C6.21677 20.1158 6.42685 20.1551 6.63366 20.1551C7.09591 20.155 7.5409 19.958 7.85623 19.6075C9.14206 20.0373 10.5708 20.2529 12 20.2529C13.4293 20.2529 14.8582 20.0373 16.1442 19.6073C16.4592 19.9579 16.9039 20.1551 17.3662 20.155C17.573 20.155 17.7833 20.1157 17.9867 20.0333C18.6385 19.7686 19.2583 19.4591 19.8292 19.113C20.2748 18.8421 20.4671 18.2893 20.2865 17.7992C20.1963 17.5535 20.0929 17.3127 19.9784 17.0773C22.6836 15.6768 24 14.2395 24 12.6886ZM6.35491 19.1919C6.31833 19.177 6.28226 19.1615 6.24593 19.1463C6.51827 18.2783 6.98799 17.4768 7.61799 16.8101C7.79023 16.6279 7.78206 16.3404 7.59983 16.1682C7.41759 15.996 7.13016 16.0041 6.95792 16.1863C6.26006 16.9249 5.73384 17.8078 5.41583 18.7645C5.14904 18.6296 4.89047 18.4869 4.64265 18.3367C4.58816 18.3035 4.55436 18.2428 4.55436 18.1781C4.55436 18.1562 4.55849 18.1338 4.56641 18.112C4.93719 17.1014 5.55049 16.1784 6.33947 15.4434C6.35602 15.428 6.37272 15.4128 6.38942 15.3976C6.40677 15.3817 6.42408 15.3659 6.44128 15.3499C7.45851 14.4402 8.7788 13.9233 10.1759 13.8838C10.3418 14.4772 10.8512 14.9283 11.4755 15.0082C11.3462 15.3837 11.0472 15.691 10.6518 15.8269C9.65249 16.1704 8.25894 16.9711 7.29524 18.8357C7.11553 19.1832 6.711 19.3362 6.35491 19.1919ZM12.7591 13.2511C12.8773 13.2511 12.9735 13.3473 12.9735 13.4655C12.9735 13.8227 12.683 14.1132 12.3259 14.1132H11.6741C11.317 14.1132 11.0265 13.8226 11.0265 13.4655C11.0265 13.3473 11.1227 13.2511 11.2409 13.2511H12.7591ZM8.35187 18.8133C9.13308 17.5595 10.1348 16.9768 10.8893 16.7063C11.2542 16.7931 11.6271 16.8368 12.0001 16.8368C12.3729 16.8368 12.7459 16.7931 13.1107 16.7063C13.8649 16.9766 14.8667 17.5592 15.6487 18.8131C13.3652 19.5243 10.6353 19.5244 8.35187 18.8133ZM19.358 18.3367C19.1099 18.487 18.8512 18.6298 18.5842 18.7647C18.2655 17.8059 17.738 16.9216 17.0383 16.1827C16.866 16.0005 16.5785 15.9927 16.3964 16.1651C16.2143 16.3375 16.2065 16.6249 16.3789 16.807C17.0103 17.4739 17.4811 18.2765 17.754 19.1463C17.7177 19.1614 17.6818 19.1769 17.6453 19.1917C17.2889 19.3361 16.885 19.1832 16.7056 18.8358C15.7406 16.9706 14.347 16.1701 13.348 15.827C12.9528 15.6912 12.654 15.3838 12.5248 15.0082C13.1489 14.9282 13.6582 14.4772 13.8241 13.8839C15.2589 13.9249 16.6105 14.4701 17.6467 15.4303C18.0408 15.795 18.3929 16.2077 18.6932 16.6568C18.9967 17.1102 19.2459 17.5999 19.4341 18.1126C19.4651 18.1968 19.4328 18.2912 19.358 18.3367ZM18.8531 10.151C18.4834 9.66767 18.2235 9.11773 18.0806 8.51649L17.723 7.01063C17.6651 6.76664 17.4203 6.61589 17.1763 6.67376C16.9323 6.73168 16.7815 6.97647 16.8395 7.22046L17.1971 8.72632C17.3695 9.45249 17.684 10.1175 18.1317 10.7028C19.6559 12.6953 19.5583 14.8265 19.3041 15.9446C18.9973 15.5165 18.6482 15.12 18.2636 14.764C17.0458 13.6356 15.4535 13.0028 13.7682 12.9744C13.6747 12.7831 13.5285 12.6223 13.3485 12.5108C13.6065 10.8912 14.6133 9.46399 16.0571 8.68021C16.2775 8.56054 16.3592 8.28491 16.2395 8.06449C16.1199 7.84406 15.8442 7.76237 15.6238 7.88205C13.9404 8.7959 12.7642 10.4566 12.4557 12.343H11.5442C11.2357 10.4566 10.0595 8.7959 8.37609 7.88205C8.15571 7.76237 7.88004 7.84406 7.76037 8.06449C7.64069 8.28491 7.72243 8.56054 7.9428 8.68021C9.38661 9.46399 10.3934 10.8912 10.6514 12.5108C10.4714 12.6223 10.3252 12.7831 10.2317 12.9743C8.5886 13.0017 7.03037 13.6033 5.83252 14.676C5.83055 14.6779 5.82859 14.6796 5.82662 14.6814C5.81007 14.6968 5.79337 14.7121 5.77667 14.7273C5.75831 14.7441 5.73994 14.7609 5.72102 14.7784C5.34132 15.1321 4.99804 15.5245 4.69613 15.9463C4.44165 14.8287 4.34326 12.6963 5.86814 10.7028C6.31591 10.1175 6.63033 9.45249 6.80278 8.72632L7.16038 7.22046C7.2183 6.97647 7.0675 6.73168 6.82351 6.67376C6.57962 6.61584 6.33473 6.76659 6.27681 7.01063L5.9192 8.51649C5.77637 9.11773 5.51654 9.66767 5.14677 10.151C3.534 12.2594 3.49667 14.512 3.75786 15.9C3.66624 15.8474 3.57749 15.7947 3.49026 15.7422C3.04159 14.063 3.60368 12.4109 3.60958 12.3939C3.69222 12.1575 3.56791 11.8987 3.33159 11.8156C3.09496 11.7324 2.83579 11.8568 2.75259 12.0934C2.72908 12.1602 2.28152 13.462 2.44085 15.0297C2.32365 14.9386 2.21295 14.8476 2.10912 14.7568C1.91896 12.3368 2.73988 10.9429 2.75214 10.9225C2.88281 10.7094 2.81672 10.4306 2.60396 10.299C2.3907 10.167 2.11084 10.2329 1.9789 10.4462C1.94384 10.5029 1.25536 11.6433 1.17862 13.6607C0.998709 13.3342 0.907995 13.0099 0.907995 12.6887C0.907995 10.6946 2.07441 8.67531 4.10815 7.14857C6.24946 5.54105 9.05215 4.65576 11.9998 4.65576C14.9475 4.65576 17.7502 5.54105 19.8915 7.14857C21.9252 8.67531 23.0917 10.6946 23.0917 12.6887C23.0917 13.0099 23.0009 13.3341 22.821 13.6607C22.7443 11.6433 22.0559 10.5029 22.0207 10.4462C21.8888 10.2328 21.6089 10.167 21.3957 10.299C21.1824 10.431 21.1165 10.7108 21.2485 10.924C21.2571 10.9379 22.0838 12.3082 21.8906 14.7568C21.7867 14.8476 21.6761 14.9387 21.5588 15.0298C21.7182 13.462 21.2706 12.1603 21.2471 12.0934C21.1639 11.8569 20.9046 11.7325 20.6681 11.8157C20.4315 11.8988 20.3072 12.1581 20.3904 12.3947C20.3963 12.4116 20.9612 14.0542 20.5094 15.7422C20.4222 15.7948 20.3334 15.8475 20.2418 15.9001C20.5032 14.512 20.4659 12.2594 18.8531 10.151Z" fill="#1A1A1A"/>
<path d="M7.58849 10.6486C7.48739 10.66 7.38911 10.6827 7.29647 10.716C6.46905 11.0132 6.1955 12.0973 6.16704 12.2199C6.12673 12.3937 6.19186 12.575 6.33354 12.6834C6.41542 12.746 7.03392 13.2009 7.70948 13.2009C7.85917 13.2009 8.01179 13.1786 8.16184 13.1247C8.25432 13.0915 8.34448 13.0465 8.42984 12.9909L8.42994 12.9909C8.93043 12.6649 9.12881 12.0623 8.92362 11.4912C8.71843 10.92 8.18166 10.5815 7.58849 10.6486ZM8.06895 11.7982C8.09246 11.8636 8.15215 12.0879 7.9344 12.2297C7.90796 12.2469 7.88117 12.2605 7.85478 12.2699C7.66226 12.3392 7.37796 12.242 7.15384 12.1269C7.25324 11.8967 7.41125 11.6397 7.60358 11.5706C7.63002 11.5611 7.65923 11.5545 7.69051 11.5509C7.94867 11.5217 8.04549 11.7328 8.06895 11.7982Z" fill="#1A1A1A"/>
<path d="M16.4049 10.6486C15.8112 10.5814 15.2749 10.92 15.0697 11.4911C14.8646 12.0623 15.0629 12.6649 15.5634 12.9908L15.5635 12.9909C15.6489 13.0464 15.739 13.0914 15.8315 13.1246C15.9816 13.1786 16.1341 13.2009 16.2839 13.2009C16.9594 13.2009 17.5779 12.7459 17.6598 12.6833C17.8015 12.575 17.8666 12.3937 17.8263 12.22C17.7979 12.0973 17.5243 11.0133 16.6969 10.7159C16.6042 10.6826 16.5059 10.66 16.4049 10.6486ZM16.1385 12.27C16.1122 12.2605 16.0855 12.247 16.059 12.2298C15.8412 12.088 15.9009 11.8636 15.9244 11.7982C15.9479 11.7329 16.0448 11.5217 16.303 11.551C16.3341 11.5546 16.3634 11.5612 16.3898 11.5707C16.5825 11.6399 16.7399 11.8957 16.8395 12.1271C16.6163 12.2413 16.3309 12.3391 16.1385 12.27Z" fill="#1A1A1A"/>
</g>
<defs>
<clipPath id="clip0_735_6586">
<rect width="24" height="24" fill="white"/>
</clipPath>
</defs>
</svg>
