<svg width="24" height="24" viewBox="0 0 24 24" fill="none" xmlns="http://www.w3.org/2000/svg">
<path d="M17 21V19C17 17.9391 16.5786 16.9217 15.8284 16.1716C15.0783 15.4214 14.0609 15 13 15H5C3.93913 15 2.92172 15.4214 2.17157 16.1716C1.42143 16.9217 1 17.9391 1 19V21M23 21V19C22.9994 18.1138 22.7044 17.2528 22.1614 16.5523C21.6184 15.8519 20.8582 15.3516 20 15.13M16 3.13003C16.8604 3.35033 17.623 3.85073 18.1676 4.55234C18.7122 5.25395 19.0078 6.11686 19.0078 7.00503C19.0078 7.8932 18.7122 8.75611 18.1676 9.45772C17.623 10.1593 16.8604 10.6597 16 10.88M13 7C13 9.20914 11.2092 11 9.00003 11C6.79089 11 5.00003 9.20914 5.00003 7C5.00003 4.79086 6.79089 3 9.00003 3C11.2092 3 13 4.79086 13 7Z" stroke="#1A1A1A" stroke-width="1.5" stroke-linecap="round" stroke-linejoin="round"/>
</svg>
