<?xml version="1.0" standalone="no"?>
<!DOCTYPE svg PUBLIC "-//W3C//DTD SVG 20010904//EN"
 "http://www.w3.org/TR/2001/REC-SVG-20010904/DTD/svg10.dtd">
<svg version="1.0" xmlns="http://www.w3.org/2000/svg"
 width="1024.000000pt" height="1024.000000pt" viewBox="0 0 1024.000000 1024.000000"
 preserveAspectRatio="xMidYMid meet">

<g transform="translate(0.000000,1024.000000) scale(0.100000,-0.100000)"
fill="#000000" stroke="none">
<path d="M2705 9337 c-68 -18 -92 -32 -148 -86 -93 -88 -120 -155 -342 -816
-77 -231 -160 -460 -190 -525 -82 -176 -107 -258 -104 -347 2 -70 0 -77 -21
-88 -42 -23 -129 -117 -154 -169 -14 -28 -28 -72 -31 -97 -5 -43 -8 -47 -43
-57 -68 -20 -236 -108 -300 -157 -109 -82 -162 -173 -181 -310 -12 -80 3 -202
30 -260 28 -58 116 -141 185 -171 l56 -24 -22 -33 c-57 -85 -95 -209 -86 -278
4 -27 3 -49 -1 -49 -62 -2 -189 -22 -213 -35 -46 -24 -119 -93 -152 -144 -24
-39 -28 -54 -28 -120 0 -54 6 -89 20 -120 11 -24 20 -47 20 -52 0 -4 -33 -32
-72 -62 -102 -75 -134 -114 -148 -183 -22 -103 1 -178 96 -321 46 -68 65 -88
106 -109 44 -22 54 -24 80 -13 16 6 35 20 42 31 12 16 15 17 26 3 11 -13 10
-23 -6 -57 -12 -27 -18 -62 -17 -99 3 -144 100 -235 313 -291 l85 -22 -79 -13
c-220 -34 -365 -201 -366 -419 0 -75 29 -172 70 -237 49 -78 196 -223 246
-244 44 -18 44 -18 45 -70 1 -29 2 -58 3 -64 1 -6 -34 -24 -77 -40 -143 -52
-321 -144 -349 -181 -50 -65 -58 -92 -58 -185 0 -151 34 -240 109 -287 43 -27
519 -252 606 -286 33 -13 68 -31 77 -39 9 -9 28 -52 43 -96 38 -115 67 -167
140 -255 84 -101 172 -160 290 -196 50 -15 92 -29 94 -30 2 -2 -12 -21 -32
-43 -70 -78 -85 -207 -37 -319 25 -58 71 -103 152 -148 46 -25 64 -29 128 -29
62 0 84 5 126 27 73 38 106 69 139 129 36 67 46 173 22 243 -18 52 -21 50 76
61 32 4 74 13 92 21 30 12 95 20 95 11 0 -32 28 -133 47 -171 32 -62 112 -143
180 -179 123 -66 318 -74 474 -20 l45 16 145 -63 c79 -34 182 -80 229 -102 47
-22 106 -48 131 -58 25 -10 106 -48 180 -83 74 -36 170 -81 214 -100 44 -19
186 -82 315 -139 295 -132 327 -143 415 -142 60 0 81 5 145 36 82 40 329 193
685 424 127 82 270 174 318 204 48 30 111 70 139 88 l51 33 71 -35 c96 -48
172 -66 283 -66 159 0 269 36 377 125 116 94 168 171 187 277 l12 68 103 0
c132 0 190 12 291 61 67 33 97 56 170 132 126 131 185 251 217 441 l12 70 190
112 c234 139 439 267 503 316 65 49 83 95 89 226 6 135 -8 182 -68 243 -37 37
-67 54 -155 88 -60 23 -122 45 -137 48 -27 5 -28 8 -28 63 0 97 -47 226 -110
305 -60 74 -60 104 1 105 39 0 124 47 161 89 18 21 60 68 93 106 73 83 100
122 125 180 93 217 -58 510 -295 574 l-40 10 0 113 c0 94 -4 125 -25 183 -31
91 -32 165 -1 225 13 25 53 92 89 149 35 57 94 165 129 240 67 140 89 175 105
164 6 -3 14 1 19 8 12 19 11 89 -1 89 -5 0 -10 8 -10 18 0 36 -30 60 -107 86
-43 14 -107 30 -143 36 -132 21 -131 20 -64 92 110 117 124 256 37 358 -38 45
-109 80 -159 80 -19 0 -65 -5 -103 -12 -65 -11 -72 -10 -92 8 -17 15 -79 123
-79 137 0 2 33 9 73 16 39 7 99 22 132 33 37 13 102 23 170 27 153 9 209 40
254 141 49 107 7 262 -83 315 -88 51 -211 25 -281 -60 -39 -48 -89 -70 -139
-62 -41 7 -146 53 -146 65 0 5 31 35 69 67 78 65 111 107 165 211 l37 71 80 6
c142 9 224 67 270 189 55 149 -19 328 -166 397 -59 28 -180 39 -242 22 -58
-16 -135 -88 -163 -153 -12 -29 -27 -89 -32 -133 -10 -87 -25 -117 -78 -152
-34 -23 -84 -30 -95 -14 -3 6 7 25 23 43 16 18 43 55 62 82 32 47 33 51 27
126 -6 89 -23 128 -73 166 -27 21 -50 29 -93 32 -77 6 -109 -11 -194 -101
l-69 -72 6 82 c8 122 31 156 142 211 62 31 110 77 141 135 36 69 9 225 -49
279 -88 83 -149 109 -252 109 -156 0 -256 -102 -256 -260 0 -31 6 -80 14 -109
l13 -52 -67 -92 c-78 -109 -103 -122 -120 -59 -13 51 -17 158 -6 236 6 49 4
66 -11 94 -23 44 -81 74 -152 79 -53 3 -59 1 -99 -33 -49 -43 -84 -106 -102
-185 -7 -30 -17 -66 -22 -80 -9 -23 -11 -24 -23 -7 -19 26 -57 173 -59 227 -1
30 8 65 28 109 25 56 28 73 24 135 -3 45 -13 86 -26 113 -50 97 -157 163 -277
171 -62 4 -78 1 -135 -25 -118 -54 -182 -151 -183 -277 0 -127 70 -231 187
-275 50 -18 51 -20 54 -62 2 -24 1 -81 -3 -127 -6 -70 -10 -83 -23 -80 -12 2
-22 26 -35 87 -39 186 -137 291 -271 291 -76 0 -159 -55 -172 -114 l-7 -31
-22 52 c-68 153 -296 148 -354 -8 -7 -19 -16 -41 -20 -49 -7 -15 -106 -69
-127 -70 -6 0 -16 37 -23 83 -7 45 -21 119 -32 165 -10 46 -19 88 -19 93 0 5
15 15 33 22 104 45 137 171 73 281 -54 92 -157 129 -248 89 -135 -60 -182
-179 -112 -286 l25 -38 -117 -122 c-64 -67 -119 -123 -123 -125 -4 -1 -24 21
-46 49 -36 47 -38 53 -27 83 17 46 15 151 -3 186 -8 16 -35 41 -58 55 -113 65
-285 -3 -303 -120 -8 -54 19 -119 65 -158 l33 -27 -13 -91 -13 -91 -19 23
c-10 13 -50 72 -89 131 -91 141 -148 203 -217 238 -78 39 -828 235 -1191 311
-85 18 -193 40 -240 50 -118 25 -234 31 -295 16z m420 -162 c268 -58 1041
-243 1174 -282 31 -9 69 -30 92 -50 38 -34 39 -37 39 -102 0 -76 -10 -116 -75
-296 -26 -71 -62 -175 -81 -230 -28 -82 -38 -101 -54 -101 -17 0 -20 8 -22 46
-1 57 -2 63 -10 75 -8 13 9 55 22 55 5 0 10 7 10 15 0 8 -4 15 -10 15 -5 0
-10 23 -10 50 0 43 3 50 20 50 25 0 26 12 1 30 -18 13 -20 36 -2 25 5 -2 9 27
10 65 2 77 -15 122 -71 185 -55 64 -99 80 -213 80 -89 0 -112 -4 -211 -38 -77
-25 -120 -35 -141 -31 -21 4 -35 1 -46 -11 -36 -36 -11 -84 55 -105 36 -12 39
-15 19 -18 -13 -2 -73 10 -135 26 -61 17 -156 40 -211 53 -125 27 -157 39
-151 54 3 8 -4 10 -21 7 -18 -3 -21 -7 -11 -13 8 -5 -12 -9 -52 -9 -263 -2
-437 -140 -594 -472 -20 -42 -36 -81 -36 -87 0 -24 -42 -121 -50 -116 -5 3
-12 -7 -15 -22 -4 -15 -13 -40 -21 -55 -15 -28 -19 -52 -6 -44 9 5 10 -39 1
-48 -3 -3 -22 -1 -42 5 -35 9 -37 12 -33 47 2 20 6 46 10 57 4 11 -4 -1 -18
-26 -14 -26 -44 -100 -67 -165 -80 -229 -91 -292 -65 -366 18 -51 2 -48 -25 4
-18 36 -21 54 -17 137 4 86 11 115 67 276 34 99 95 277 135 395 146 428 269
776 293 827 27 56 81 116 127 140 73 38 141 33 441 -32z m2449 -41 c32 -32 49
-89 35 -115 -12 -23 -60 -49 -89 -49 -52 0 -109 73 -96 123 6 25 69 66 102 67
12 0 33 -12 48 -26z m1254 -50 c49 -20 90 -60 113 -109 20 -43 25 -111 9 -135
-7 -11 -10 -7 -10 17 0 44 -13 71 -60 123 -33 36 -39 39 -29 18 7 -16 16 -28
21 -28 4 0 8 -6 8 -14 0 -8 -23 -26 -52 -41 -42 -22 -60 -26 -95 -21 -64 8
-86 23 -80 52 6 32 1 30 -18 -6 -21 -40 -19 -66 10 -128 14 -30 25 -56 25 -59
0 -2 -13 5 -29 16 -36 26 -71 96 -71 142 1 74 55 149 127 174 50 19 86 18 131
-1z m-1893 -129 c32 -31 31 -46 -1 -84 -46 -55 -124 -33 -124 35 0 28 6 38 33
54 42 26 63 25 92 -5z m539 -97 c3 -18 12 -75 20 -125 9 -51 20 -164 27 -250
6 -87 13 -164 15 -171 5 -16 35 -1 152 75 75 48 193 113 207 113 16 0 2 -38
-17 -48 -13 -6 -58 -42 -101 -81 -42 -39 -103 -89 -135 -113 -75 -55 -147
-127 -147 -147 0 -9 -6 -15 -12 -13 -12 2 -17 -12 -16 -44 0 -8 -21 -6 -66 8
-192 56 -388 98 -463 98 l-38 0 0 233 c0 127 -3 269 -7 315 -4 58 -3 82 5 82
22 0 70 -80 133 -220 34 -76 66 -137 70 -134 5 3 46 55 92 117 46 62 123 159
170 216 48 57 87 108 87 112 0 5 4 9 10 9 5 0 11 -15 14 -32z m2551 -80 c34
-23 65 -66 65 -89 0 -10 -3 -10 -12 -1 -21 21 -38 14 -38 -16 0 -33 -16 -53
-38 -44 -11 4 -14 1 -9 -10 4 -12 -7 -21 -43 -36 -47 -20 -48 -20 -79 -1 -17
10 -31 25 -31 33 0 7 -7 19 -15 26 -20 16 -19 5 5 -74 13 -40 18 -76 14 -93
-14 -58 -86 -181 -147 -247 -34 -38 -63 -78 -63 -88 -1 -10 10 -27 24 -38 19
-16 23 -25 18 -47 -13 -55 -12 -57 29 -65 59 -11 239 -10 272 2 15 6 60 44
100 85 58 61 77 75 102 75 52 0 69 -68 31 -125 -11 -16 -20 -25 -20 -19 0 5
-6 18 -13 28 -12 16 -15 15 -52 -15 -22 -17 -59 -40 -82 -51 -43 -19 -57 -48
-32 -64 21 -12 -14 -24 -75 -24 -112 0 -246 -33 -246 -60 0 -5 -28 -24 -62
-41 -76 -38 -78 -41 -108 -112 -27 -63 -65 -93 -105 -83 -13 3 -31 3 -39 0
-22 -8 -20 -34 2 -34 17 -1 46 -22 71 -53 13 -16 12 -16 -15 -2 -16 8 -34 15
-40 15 -7 0 -31 9 -55 20 -24 11 -59 20 -77 20 -20 0 -31 4 -27 10 3 6 -5 10
-18 10 -14 0 -27 7 -31 15 -3 8 -1 15 5 15 26 0 120 54 166 95 90 81 103 156
52 302 -58 165 -116 245 -198 274 -18 6 -31 16 -29 23 12 40 62 198 74 233 31
86 78 117 108 70 19 -27 11 -64 -15 -72 -10 -4 -19 -14 -19 -23 0 -14 -2 -15
-10 -2 -10 16 -16 4 -44 -88 -13 -45 -13 -52 0 -52 9 0 14 -12 15 -37 1 -21 2
-42 4 -48 1 -5 3 -16 3 -23 1 -8 9 -12 18 -10 20 4 46 82 32 96 -6 6 -6 12 1
16 6 4 11 22 12 39 1 25 4 19 15 -27 20 -82 73 -206 89 -206 7 0 44 16 83 35
117 59 242 214 242 301 0 18 -7 61 -15 97 -23 98 3 163 78 198 53 25 126 19
172 -13z m-5146 -102 c-8 -7 -129 -54 -129 -49 0 6 104 53 119 53 8 0 12 -2
10 -4z m1098 -21 c61 -26 104 -65 129 -118 12 -28 21 -54 18 -59 -3 -4 0 -8 7
-8 22 0 1 -13 -26 -15 -20 -3 -29 4 -41 28 -21 42 -72 95 -109 114 -44 24
-123 43 -180 44 l-50 1 40 13 c56 19 168 18 212 0z m2077 -28 c42 -54 30 -102
-28 -112 -47 -9 -71 7 -92 61 -18 47 -18 47 5 65 38 31 86 25 115 -14z m378
-30 c24 -24 39 -54 57 -114 31 -110 62 -171 103 -211 36 -34 177 -96 190 -83
14 13 28 113 28 195 0 44 3 119 7 164 6 82 6 83 20 52 9 -22 13 -77 13 -172 0
-123 2 -143 20 -168 10 -15 22 -45 25 -66 5 -32 2 -43 -15 -62 -17 -18 -25
-21 -36 -11 -11 9 -14 8 -14 -3 0 -8 -9 -24 -20 -36 -11 -12 -20 -24 -20 -27
0 -13 -42 -50 -58 -52 -9 -1 -73 -7 -142 -13 -69 -7 -136 -14 -150 -17 l-25
-6 29 -8 c16 -4 32 -6 36 -4 3 2 26 5 51 6 24 1 49 6 56 11 13 10 63 -17 63
-34 0 -5 -4 -7 -10 -3 -5 3 -18 -3 -29 -14 -27 -27 -98 -36 -163 -21 -149 34
-232 68 -223 93 3 6 -13 22 -36 36 -23 12 -62 38 -86 57 -24 19 -50 34 -58 34
-22 0 -24 25 -4 51 10 13 19 28 19 33 0 14 -53 -4 -87 -30 -26 -20 -33 -33
-34 -62 l-1 -37 -9 30 c-22 73 26 155 89 155 52 0 61 -9 101 -92 32 -65 41
-76 86 -98 41 -20 67 -25 165 -28 75 -3 142 1 195 11 44 8 96 12 116 10 41 -5
62 13 57 49 -2 17 -23 34 -83 66 -44 23 -92 51 -107 62 -34 25 -38 25 -38 -3
0 -25 15 -49 73 -119 43 -53 41 -58 -9 -27 -57 35 -137 196 -113 226 7 7 19
11 26 9 11 -5 13 0 7 17 -14 47 -45 97 -60 97 -16 0 -35 -39 -26 -55 3 -5 -9
3 -28 19 -83 69 -104 189 -37 216 38 15 55 11 89 -23z m498 -67 c21 -91 47
-139 110 -204 33 -35 57 -66 53 -69 -24 -24 -133 7 -133 38 0 7 -12 39 -26 71
-46 103 -70 224 -44 224 6 0 10 8 11 18 0 14 2 14 9 -3 4 -11 13 -45 20 -75z
m-3768 65 c30 -5 39 -11 44 -31 13 -53 -47 -206 -111 -279 l-35 -40 -24 27
c-56 62 -91 224 -63 290 14 33 20 37 59 40 45 4 69 3 130 -7z m-255 -102 c-4
-79 -11 -113 -37 -178 -41 -102 -51 -113 -83 -92 -38 25 -61 83 -65 170 -5 86
6 122 44 150 30 22 91 45 123 46 23 1 23 1 18 -96z m783 67 c0 -5 -2 -10 -4
-10 -3 0 -8 5 -11 10 -3 6 -1 10 4 10 6 0 11 -4 11 -10z m-282 -27 c35 -17 37
-20 36 -64 -3 -79 -64 -168 -131 -190 -44 -14 -69 -4 -82 33 -15 42 -14 79 5
151 25 97 28 101 86 94 27 -4 66 -14 86 -24z m360 5 c8 -7 44 -40 79 -74 54
-51 69 -60 93 -56 28 4 29 3 20 -28 -7 -23 -6 -30 3 -27 7 2 13 13 15 25 4 28
22 29 22 2 0 -14 7 -20 21 -20 19 0 20 -4 15 -35 -4 -19 -2 -43 4 -54 8 -16 6
-21 -9 -26 -11 -3 -22 -11 -24 -18 -2 -7 -3 -4 -2 5 6 36 -14 27 -21 -9 l-7
-37 -17 55 c-10 31 -34 80 -53 110 -40 62 -151 173 -185 183 -12 4 -22 12 -22
17 0 13 48 3 68 -13z m-1150 -48 c-22 -30 -35 -41 -22 -17 9 16 36 47 41 47 2
0 -6 -13 -19 -30z m980 -29 c31 -16 68 -38 82 -49 22 -18 23 -22 12 -59 -16
-53 -82 -127 -146 -163 -97 -56 -117 -35 -98 101 12 85 57 199 79 199 7 0 39
-13 71 -29z m2662 -104 c27 -23 52 -60 79 -120 l40 -87 -28 0 c-60 0 -87 19
-135 93 -50 77 -92 112 -150 122 -20 4 -38 10 -41 14 -2 4 23 20 55 35 33 15
68 37 77 50 l18 24 23 -49 c13 -27 41 -64 62 -82z m-370 73 c0 -5 -2 -10 -4
-10 -3 0 -8 5 -11 10 -3 6 -1 10 4 10 6 0 11 -4 11 -10z m-17 -35 c-3 -9 -8
-14 -10 -11 -3 3 -2 9 2 15 9 16 15 13 8 -4z m-41 -50 c-2 -14 -9 -28 -15 -32
-6 -3 -7 -1 -3 5 4 7 2 12 -3 12 -7 0 -7 7 1 20 17 27 26 25 20 -5z m-1235
-22 c21 -32 23 -118 4 -182 -23 -80 -94 -127 -127 -83 -21 27 -17 132 7 195
37 96 82 123 116 70z m-752 -83 c12 -19 28 -52 35 -73 12 -38 12 -40 -26 -79
-52 -52 -147 -110 -187 -112 -30 -1 -32 1 -29 32 4 54 58 210 93 267 l33 55
29 -28 c16 -15 39 -43 52 -62z m3330 -19 c48 -21 90 -69 117 -129 20 -44 16
-67 -8 -58 -8 3 -14 0 -14 -6 0 -6 -20 17 -43 51 -24 34 -65 78 -92 96 -62 45
-62 44 -45 55 22 14 40 12 85 -9z m1621 -62 c43 -21 84 -63 98 -103 6 -18 5
-18 -18 -2 -33 21 -33 21 -41 -11 -7 -30 -29 -55 -57 -66 -10 -3 -18 -13 -18
-21 0 -19 -41 -30 -76 -22 -41 11 -87 62 -82 91 3 13 1 22 -3 19 -12 -7 -29
-74 -29 -114 0 -107 -73 -202 -183 -238 -58 -19 -197 -32 -197 -18 0 2 -3 11
-6 20 -5 14 3 16 53 16 120 0 214 47 263 133 25 43 30 63 30 118 0 168 127
263 266 198z m-4053 -158 c-2 -109 -3 -115 -29 -142 -55 -58 -90 -25 -82 75 4
39 15 81 33 116 30 59 42 71 65 67 12 -2 15 -22 13 -116z m-766 87 c-3 -8 -6
-5 -6 6 -1 11 2 17 5 13 3 -3 4 -12 1 -19z m1177 -43 c144 -40 336 -112 400
-150 49 -30 44 -32 -15 -6 -66 29 -265 72 -291 62 -27 -10 -21 -13 80 -41 45
-13 81 -25 79 -27 -2 -2 -73 15 -158 38 -85 23 -204 51 -265 63 -103 20 -144
36 -144 57 0 4 10 18 23 30 20 19 30 20 92 15 39 -3 128 -22 199 -41z m1946
-11 c17 -15 38 -40 46 -57 15 -28 15 -29 -1 -23 -27 10 -93 -15 -126 -48 -22
-23 -29 -39 -29 -69 0 -81 53 -125 138 -113 38 4 53 13 79 42 l33 37 9 -24
c31 -82 -120 -128 -255 -78 -145 55 -192 170 -113 278 60 84 156 108 219 55z
m-2908 -56 c-7 -7 -12 -8 -12 -2 0 14 12 26 19 19 2 -3 -1 -11 -7 -17z m1433
3 c-3 -6 -11 -8 -17 -5 -6 4 -5 9 3 15 16 10 23 4 14 -10z m-2555 -62 c25 -10
36 -18 25 -18 -61 4 -79 -3 -116 -40 -22 -21 -42 -53 -45 -70 -4 -17 -10 -28
-15 -25 -5 3 -9 2 -9 -3 0 -4 -31 -8 -68 -8 -64 0 -68 1 -64 20 3 11 10 24 16
28 6 5 2 6 -9 2 -72 -26 -73 -13 -4 49 89 80 198 105 289 65z m4095 -23 c30
-45 -14 -82 -61 -51 -32 20 -40 41 -24 60 20 24 67 19 85 -9z m-3810 -12 c14
-6 13 -9 -6 -22 -12 -8 -42 -19 -66 -23 -37 -7 -56 -20 -106 -72 -34 -35 -73
-71 -87 -80 -33 -21 -95 -16 -121 9 -18 19 -17 21 76 89 52 39 114 78 137 87
43 17 142 24 173 12z m1092 -29 c15 -31 15 -43 4 -97 -16 -77 -32 -108 -71
-142 -60 -50 -80 -31 -80 77 0 62 25 128 65 171 34 37 62 34 82 -9z m-1796
-52 c20 -120 -3 -317 -38 -330 -14 -6 -61 27 -125 88 -37 35 -40 42 -35 79 5
43 103 199 141 226 28 20 47 0 57 -63z m3987 51 c18 -5 22 -13 22 -46 0 -34
-4 -41 -28 -50 -17 -7 -33 -23 -39 -39 -9 -24 -8 -33 9 -54 23 -30 37 -31 108
-6 39 14 59 16 67 9 16 -13 9 -24 -19 -31 -13 -3 -49 -12 -81 -21 -33 -9 -77
-17 -98 -18 -22 -1 -35 -4 -28 -8 11 -8 -39 -50 -60 -50 -6 0 -11 -4 -11 -9 0
-5 -21 -11 -47 -15 -27 -3 -61 -15 -78 -26 -47 -32 -175 -91 -183 -86 -5 3
-23 -4 -40 -14 -39 -24 -40 -19 -4 31 19 27 51 52 107 81 44 23 108 61 143 85
35 24 67 43 73 43 5 0 9 5 9 10 0 13 -98 12 -165 -1 -154 -30 -186 -20 -110
33 25 18 42 34 36 36 -6 2 -45 -12 -88 -31 -43 -20 -103 -42 -133 -51 -60 -16
-184 -25 -196 -13 -4 4 0 7 8 7 27 0 219 66 313 108 50 22 124 47 165 57 41 9
116 28 165 40 50 13 104 26 120 28 17 2 32 5 35 5 3 1 15 -1 28 -4z m1351 -65
c46 -10 149 -65 139 -75 -3 -2 -27 8 -54 23 -47 27 -54 28 -172 26 -68 -1
-138 -6 -155 -12 -51 -15 -97 -21 -97 -13 0 12 105 44 170 52 83 11 114 11
169 -1z m-3379 -121 c33 -54 27 -79 -34 -137 -30 -28 -61 -51 -69 -51 -21 0
-30 62 -16 109 14 46 64 111 85 111 8 0 23 -15 34 -32z m-1702 -25 c16 -27 36
-66 43 -88 14 -44 19 -199 6 -211 -21 -21 -261 68 -273 101 -9 23 12 87 37
116 12 13 33 42 47 64 32 50 50 64 83 65 21 0 33 -10 57 -47z m-536 -47 c43
-89 137 -175 256 -235 208 -104 437 -161 652 -161 100 0 126 4 196 28 95 34
159 75 213 140 106 126 122 128 32 5 -120 -166 -317 -236 -591 -212 -94 8
-304 62 -417 108 -154 61 -267 139 -337 233 -32 43 -69 135 -61 148 12 20 30
3 57 -54z m1157 21 c28 -35 68 -207 55 -241 -3 -9 -20 -24 -37 -35 -35 -20
-204 -67 -213 -59 -8 9 25 126 48 172 38 76 112 176 129 176 3 0 12 -6 18 -13z
m4459 -34 c72 -45 52 -212 -31 -264 -25 -16 -45 -19 -92 -16 -73 4 -120 25
-186 85 -59 53 -80 89 -82 143 -1 44 11 58 50 53 29 -3 43 -15 26 -21 -18 -6
-16 -78 2 -114 19 -35 70 -69 104 -69 34 0 89 37 107 72 12 23 14 45 9 93 l-7
64 38 -6 c22 -3 49 -12 62 -20z m-2565 -12 c88 -23 222 -83 294 -132 69 -47
198 -174 249 -246 60 -83 117 -208 150 -328 24 -87 28 -119 28 -245 1 -169
-18 -252 -85 -379 -50 -96 -166 -241 -244 -304 -162 -131 -431 -206 -699 -194
-285 12 -470 86 -655 262 -177 168 -261 371 -261 631 0 222 44 361 175 549 73
105 151 182 254 250 76 50 214 114 290 135 127 34 375 35 504 1z m-2212 -12
c52 -73 87 -237 57 -267 -16 -16 -72 -15 -155 2 -105 22 -106 23 -98 65 14 81
115 231 155 231 10 0 29 -14 41 -31z m4623 -1 c25 -59 -5 -77 -59 -34 -30 24
-30 24 -11 45 28 31 55 27 70 -11z m-804 -19 c143 -17 313 -83 440 -169 76
-52 198 -166 217 -204 14 -28 10 -26 -38 20 -62 58 -109 94 -218 167 -54 36
-240 116 -311 133 -30 8 -93 16 -140 20 -70 5 -96 3 -150 -14 -83 -26 -215
-87 -257 -119 -37 -27 -40 -24 -17 17 40 67 211 139 379 159 6 0 49 -4 95 -10z
m-2841 -138 c36 -19 68 -48 60 -55 -7 -6 -224 -85 -253 -92 -26 -6 -28 -5 -21
17 15 45 58 100 99 124 50 30 66 31 115 6z m2740 -17 c28 -6 31 -10 31 -43 0
-28 -10 -48 -44 -89 -43 -54 -44 -54 -108 -58 -62 -4 -66 -3 -82 22 -10 14
-20 41 -23 60 -5 29 -2 38 17 52 77 56 133 71 209 56z m256 -35 c33 -16 50
-26 38 -23 -17 4 -23 1 -23 -11 0 -24 31 -31 45 -11 9 12 15 14 20 6 11 -18
-12 -52 -52 -80 -20 -14 -55 -40 -76 -58 -28 -23 -43 -30 -50 -23 -13 13 -22
179 -13 216 8 30 16 29 111 -16z m1169 -139 c57 -44 136 -70 212 -70 85 0 127
19 196 87 44 44 64 56 87 56 31 0 65 -23 82 -55 8 -16 7 -17 -16 -8 -21 8 -25
7 -25 -10 0 -20 -17 -36 -28 -26 -3 4 -1 15 6 26 32 52 -45 24 -97 -35 -39
-45 -94 -65 -196 -72 -79 -5 -81 -5 -175 41 -99 49 -150 92 -150 127 0 21 1
21 33 -5 17 -15 49 -40 71 -56z m-4044 64 c0 -3 -15 -24 -33 -47 -78 -98 -125
-197 -172 -366 -30 -109 -33 -115 -63 -125 -57 -20 -97 -59 -99 -99 -2 -20 2
-39 8 -42 7 -5 6 -11 -2 -21 -6 -7 -16 -11 -22 -7 -5 3 -8 2 -4 -3 3 -5 -13
-29 -35 -54 -37 -41 -38 -42 -13 -7 31 43 28 62 -3 22 -25 -31 -84 -171 -87
-205 -6 -54 -46 -288 -61 -350 -9 -36 -23 -78 -32 -95 -9 -16 -17 -36 -18 -43
-5 -30 -14 -43 -26 -36 -8 5 -9 2 -5 -9 8 -21 -84 -132 -150 -179 -115 -83
-262 -125 -407 -114 -106 7 -163 21 -266 65 -304 132 -381 155 -492 149 -179
-11 -312 -137 -307 -293 6 -222 5 -234 -40 -340 -23 -55 -50 -109 -60 -120
-46 -51 -135 -192 -172 -272 -72 -154 -119 -194 -294 -243 -83 -23 -129 -18
-179 21 -37 29 -24 39 31 23 55 -17 88 -13 185 23 93 35 160 95 189 171 27 73
69 272 70 337 0 37 3 45 9 30 7 -16 9 -12 9 19 1 33 -5 45 -38 77 -50 47 -112
58 -186 33 -66 -22 -160 -65 -210 -95 -96 -59 -152 -74 -275 -74 -88 0 -118
-3 -126 -14 -9 -12 -14 -10 -30 14 -27 42 -26 144 2 182 31 42 204 170 247
183 37 11 38 10 86 -39 83 -85 200 -103 297 -46 108 63 155 205 103 308 -25
48 -36 58 -101 92 -49 26 -140 34 -176 16 -106 -53 -138 -53 -87 0 52 53 97
75 170 83 53 6 67 3 121 -23 34 -16 65 -34 68 -40 4 -6 12 -11 17 -11 22 0
-25 49 -69 71 -26 13 -49 25 -51 27 -11 6 33 36 153 102 238 132 319 154 546
155 165 0 165 0 273 -38 60 -20 168 -68 241 -107 208 -109 301 -122 431 -60
107 51 169 133 224 292 16 46 34 112 41 148 21 119 81 334 114 406 63 136 205
312 307 381 71 47 168 98 261 137 104 43 188 65 188 50z m3044 -9 c-4 -8 -2
-16 2 -16 5 -1 19 -3 31 -4 43 -4 73 -33 73 -69 0 -27 -12 -46 -58 -96 -45
-49 -62 -62 -77 -57 -16 7 -17 16 -11 109 8 120 14 148 32 148 8 0 11 -6 8
-15z m753 -160 c27 -19 56 -77 51 -101 -3 -14 -8 -13 -36 11 -18 15 -42 45
-53 66 -18 37 -18 39 -1 39 9 0 27 -7 39 -15z m-5878 -40 c105 -36 185 -87
285 -184 82 -80 122 -145 110 -183 -5 -16 -8 -18 -15 -7 -5 9 -8 -20 -6 -73 2
-79 0 -88 -22 -112 -28 -29 -47 -32 -75 -11 -11 8 -29 13 -40 10 -12 -3 -16
-2 -10 1 7 3 -5 36 -35 92 -87 165 -220 262 -369 269 -47 2 -69 0 -58 -5 20
-9 20 -9 0 -15 -93 -28 -90 -27 -70 -12 11 8 24 15 30 15 5 0 7 2 4 5 -8 9
-73 -22 -107 -51 -21 -17 -31 -35 -31 -53 0 -15 -9 -52 -20 -84 -11 -31 -20
-66 -20 -78 0 -21 -32 -74 -60 -97 -32 -26 -151 -82 -175 -82 -17 0 -24 -4
-19 -12 4 -7 3 -8 -5 -4 -6 4 -26 4 -43 1 -30 -7 -31 -8 -13 -21 29 -22 4 -16
-35 7 -56 34 -81 61 -106 114 -48 100 -22 270 55 356 43 49 208 152 311 194
114 46 164 54 315 52 124 -3 150 -6 224 -32z m5351 -13 c-16 -8 -30 -20 -30
-27 0 -7 -9 -15 -21 -18 -28 -8 -47 39 -24 62 13 13 15 13 15 0 0 -8 10 -16
25 -17 16 -1 25 3 24 11 -4 35 1 40 21 22 20 -18 20 -18 -10 -33z m-3912 15
c18 -19 19 -26 9 -47 -14 -27 -75 -72 -91 -67 -36 12 -31 74 11 113 32 30 44
30 71 1z m3965 -44 c3 -10 17 -48 31 -85 28 -74 26 -80 -33 -93 -41 -9 -115
-8 -143 1 -17 5 -19 12 -15 40 8 46 37 104 52 104 8 0 21 7 30 16 8 9 26 17
39 18 13 0 22 4 19 9 -2 4 0 7 5 7 5 0 12 -8 15 -17z m-932 -73 c4 -14 7 -66
8 -116 1 -109 -2 -114 -94 -122 -54 -4 -69 -2 -85 13 -40 36 -13 121 66 205
54 58 93 65 105 20z m-3161 -100 c0 -5 -13 -30 -30 -56 -16 -26 -37 -80 -45
-120 -9 -40 -23 -81 -30 -91 -13 -17 -14 -17 -33 1 -29 25 -38 87 -17 123 36
64 96 138 117 145 34 9 38 9 38 -2z m3442 -27 c2 -10 2 -43 0 -73 l-4 -56 -91
11 c-98 11 -109 19 -83 60 36 55 168 97 178 58z m205 -91 c21 -13 35 -66 28
-109 -5 -37 -25 -71 -25 -44 0 5 -27 24 -60 43 -59 32 -74 48 -45 48 8 0 15 5
15 12 0 14 49 57 65 57 6 1 15 -3 22 -7z m-697 -70 c8 -1 53 -1 100 0 282 10
393 -14 535 -113 77 -53 174 -159 146 -159 -5 0 -44 30 -87 66 -157 132 -342
184 -574 163 l-115 -11 -22 27 c-25 28 -31 51 -10 38 6 -4 19 -9 27 -11z
m-4161 -106 c44 -67 60 -123 61 -204 0 -75 -16 -56 -22 25 -7 83 -38 168 -85
231 -20 26 -27 39 -15 28 12 -10 39 -46 61 -80z m5149 -25 c3 -121 0 -131 -49
-155 l-29 -14 -75 82 c-41 46 -75 88 -75 94 0 25 53 72 98 86 127 41 127 41
130 -93z m1250 39 c12 -8 22 -17 22 -21 0 -10 -204 -10 -220 1 -12 7 -8 10 15
10 17 0 52 9 80 19 50 19 62 18 103 -9z m-5675 1 c22 -22 -66 -103 -94 -85 -6
3 -24 -6 -40 -22 -29 -28 -34 -25 -29 21 4 34 29 74 58 90 28 16 87 14 105 -4z
m-545 -122 c-7 -5 -20 -1 -30 8 -25 23 -11 36 18 16 19 -12 22 -18 12 -24z
m868 -81 c-12 -93 -46 -119 -100 -77 -45 36 -32 65 49 107 22 12 44 21 49 22
5 0 5 -24 2 -52z m-669 10 c-3 -8 -6 -5 -6 6 -1 11 2 17 5 13 3 -3 4 -12 1
-19z m1393 9 c0 -7 -14 -28 -31 -47 -22 -25 -27 -27 -17 -10 8 14 20 35 27 48
13 25 21 28 21 9z m-2417 -38 c-5 -5 -37 -12 -69 -15 -69 -5 -62 2 16 15 30 5
57 9 60 10 2 0 -1 -4 -7 -10z m620 -131 c19 -24 40 -54 47 -67 11 -21 10 -23
-5 -18 -9 4 -68 7 -131 7 -125 0 -132 4 -92 55 30 38 77 65 115 65 25 0 39 -9
66 -42z m1832 -26 c-13 -12 -16 -13 -9 -2 4 8 7 28 7 45 l-2 30 11 -28 c8 -24
7 -32 -7 -45z m-1600 23 c-29 -24 -74 -31 -66 -10 2 8 31 18 91 34 3 0 -8 -10
-25 -24z m785 -35 c0 -60 -37 -103 -66 -79 -18 15 -9 46 24 82 33 35 42 34 42
-3z m-1407 -30 c47 -44 43 -54 -24 -65 -20 -4 -66 -21 -102 -39 -36 -19 -69
-31 -72 -28 -3 3 -5 17 -5 32 0 55 83 140 137 140 14 0 41 -16 66 -40z m786
-6 c21 -15 60 -85 61 -109 0 -37 -18 -35 -118 13 l-102 49 37 25 c62 42 86 46
122 22z m4936 -16 c143 -30 283 -127 570 -393 307 -286 383 -463 330 -771 -13
-76 -28 -115 -103 -264 -110 -221 -297 -506 -384 -584 -67 -61 -181 -121 -303
-159 -202 -63 -500 -104 -564 -78 -55 23 -81 122 -61 231 21 118 24 123 223
470 96 167 184 271 292 342 33 22 49 37 35 33 -54 -16 -174 -115 -236 -194
-46 -59 -74 -73 -75 -38 0 12 -13 -13 -28 -55 -51 -141 -209 -388 -305 -475
-73 -67 -191 -114 -301 -120 -79 -5 -80 -5 -140 35 -69 45 -247 218 -328 319
-70 87 -160 226 -195 300 -25 53 -27 68 -27 178 0 82 6 136 17 170 55 171 188
450 268 562 205 286 328 380 579 443 253 64 567 84 736 48z m-3375 -95 c0 -2
-5 -1 -10 2 -13 8 59 -107 72 -116 5 -3 2 -12 -7 -19 -8 -7 -17 -11 -18 -9
-28 40 -65 132 -65 162 l0 39 14 -27 c8 -15 14 -29 14 -32z m-2678 -29 c21
-15 38 -29 37 -33 -1 -12 -138 -73 -148 -66 -6 3 -11 21 -11 39 0 38 37 78 79
85 3 1 22 -11 43 -25z m7247 17 c73 -5 138 -14 143 -19 13 -13 -25 -52 -52
-52 -24 0 -58 -21 -100 -60 -16 -15 -42 -32 -57 -38 -60 -22 -259 -74 -304
-79 l-48 -6 -3 39 c-3 38 -4 39 -40 39 -24 1 -45 8 -61 23 -13 12 -27 19 -32
15 -4 -5 0 7 11 26 26 47 77 77 164 100 84 22 173 25 379 12z m-5718 -50 l44
-39 -37 -16 c-21 -9 -50 -16 -66 -16 -34 0 -133 18 -140 25 -8 8 31 46 68 66
54 28 82 24 131 -20z m1022 -98 c20 -84 57 -401 57 -489 0 -49 5 -73 19 -92
21 -30 44 -103 35 -111 -3 -3 -11 2 -18 12 -14 17 -27 23 -25 10 1 -5 1 -11 0
-15 -1 -7 -111 31 -159 56 l-32 16 4 -60 c4 -70 -7 -70 -29 2 -27 94 -16 293
26 460 24 95 89 278 99 278 3 0 14 -30 23 -67z m424 -99 c97 -96 134 -118 230
-138 290 -60 562 -57 825 10 53 13 115 24 138 24 44 0 103 -20 115 -40 11 -18
-51 -76 -109 -100 -28 -12 -60 -25 -71 -30 -81 -37 -152 -55 -340 -89 -97 -17
-102 -19 -67 -20 17 0 32 -5 32 -11 0 -5 12 -10 28 -11 22 -1 20 -3 -13 -11
-22 -5 -111 -8 -200 -5 -146 4 -174 8 -329 46 -196 50 -237 66 -324 128 -108
77 -144 159 -106 239 19 39 72 94 91 94 8 0 53 -39 100 -86z m1408 16 c19 -26
25 -46 25 -87 0 -92 -40 -147 -152 -211 -86 -49 -362 -124 -400 -109 -7 3 -3
6 10 6 29 1 215 51 222 59 3 4 22 16 42 27 58 32 150 100 186 138 19 19 37 52
42 73 10 43 -1 116 -21 141 -12 15 -12 15 3 7 10 -5 29 -25 43 -44z m-4725
-29 c0 -5 -20 -37 -45 -71 -25 -33 -55 -81 -67 -105 -20 -41 -21 -48 -8 -100
14 -59 9 -76 -18 -59 -30 19 -47 66 -47 131 0 52 5 68 31 105 16 24 54 58 84
76 56 33 70 38 70 23z m7630 5 c0 -20 -18 -39 -49 -52 -51 -21 -157 -91 -216
-141 -31 -27 -53 -39 -59 -33 -6 6 -5 15 3 24 8 9 8 15 1 18 -7 2 -7 13 1 37
9 26 9 38 0 52 -14 24 -14 29 2 29 7 0 67 15 132 34 106 31 185 44 185 32z
m-369 -107 c-2 -8 -4 -22 -5 -31 0 -15 -5 -13 -29 10 l-28 27 23 6 c30 9 44 5
39 -12z m-7035 -69 c15 -57 1 -84 -46 -88 -80 -8 -102 90 -28 123 49 21 62 15
74 -35z m-135 9 c-30 -28 -51 -79 -51 -125 0 -28 8 -44 35 -71 26 -26 31 -35
19 -40 -31 -12 -93 79 -94 137 0 37 36 89 73 105 43 19 45 18 18 -6z m2988
-91 l73 -76 -29 -86 c-23 -70 -29 -82 -35 -64 -4 13 -5 -2 -2 -32 9 -82 -4
-56 -37 76 -32 130 -60 280 -50 267 4 -4 40 -42 80 -85z m-2739 -66 c0 -5 -7
-17 -16 -28 -8 -10 -14 -14 -11 -9 2 6 7 18 10 28 7 17 17 23 17 9z m2949
-162 c0 -74 -17 -150 -18 -87 -1 16 -5 26 -10 23 -11 -7 -37 22 -49 54 -9 23
-11 20 -27 -33 -9 -32 -19 -57 -21 -54 -3 3 29 161 41 204 3 8 16 5 44 -10
l41 -22 -1 -75z m-982 33 c-4 -3 0 -14 8 -23 15 -16 13 -17 -30 -7 -45 10 -49
21 -10 30 31 7 39 8 32 0z m1183 -49 c0 -17 3 -53 7 -79 l6 -47 81 -39 c105
-50 217 -74 451 -95 107 -10 193 -22 197 -28 4 -6 21 -69 38 -141 38 -161 127
-414 229 -650 32 -75 43 -85 69 -62 9 9 30 21 46 27 27 10 32 8 72 -35 56 -57
56 -82 4 -129 -126 -114 -459 -206 -742 -206 -196 0 -415 41 -642 118 -51 18
-86 26 -83 19 2 -7 45 -37 97 -66 51 -30 89 -56 83 -58 -6 -2 -39 7 -75 20
-163 59 -300 169 -333 267 -30 92 -9 150 101 272 163 180 280 513 309 879 l7
86 39 -11 c35 -9 39 -13 39 -42z m970 34 c1 -2 5 -61 10 -133 19 -276 102
-532 240 -739 48 -71 52 -81 47 -122 -2 -25 -7 -47 -10 -50 -25 -26 -117 107
-200 289 -92 201 -147 454 -147 673 0 49 4 65 18 73 15 10 41 15 42 9z m-3172
-44 c4 -4 -2 -4 -13 0 -11 4 -32 10 -48 13 -15 3 -30 9 -33 14 -6 10 85 -16
94 -27z m206 10 c9 -3 14 -9 12 -13 -2 -3 9 -6 26 -7 56 -2 51 -20 -7 -22 -36
-1 -54 2 -50 9 4 5 1 16 -5 24 -13 16 -3 19 24 9z m-153 -41 c13 -17 13 -17
-6 -3 -11 8 -22 16 -24 17 -2 2 0 3 6 3 6 0 17 -8 24 -17z m834 -25 c306 -91
811 -255 857 -279 45 -23 118 -91 118 -110 0 -10 -15 -14 -57 -14 -49 0 -80
-10 -198 -62 -77 -33 -196 -84 -265 -113 -135 -56 -503 -219 -560 -247 -24
-12 -43 -34 -59 -67 l-25 -49 17 -221 c10 -122 22 -322 28 -446 6 -124 17
-290 25 -369 8 -79 12 -146 10 -149 -7 -7 -14 34 -20 118 -4 41 -13 158 -21
260 -8 102 -24 310 -35 463 -11 154 -25 300 -31 325 -23 102 -56 127 -279 206
-69 25 -215 79 -325 121 -300 115 -453 165 -478 156 -12 -5 -31 -20 -42 -35
-17 -24 -20 -42 -20 -129 1 -128 18 -343 56 -697 44 -410 50 -435 130 -504 49
-41 43 -49 -8 -10 -39 29 -78 88 -99 146 -7 22 -23 128 -34 236 -11 109 -27
251 -35 317 -29 240 -54 570 -46 610 18 87 59 144 138 190 43 26 211 93 388
155 103 37 382 138 510 185 169 62 193 63 360 13z m-710 12 c3 -5 -1 -10 -10
-10 -9 0 -13 5 -10 10 3 6 8 10 10 10 2 0 7 -4 10 -10z m-11 -22 c50 1 51 1
21 -12 -31 -13 -78 -5 -92 17 -4 6 -1 7 7 2 7 -4 35 -7 64 -7z m-1149 -171
c-7 -37 -15 -71 -18 -74 -13 -12 -37 8 -57 46 l-20 40 22 15 c28 17 82 45 84
43 1 -1 -4 -33 -11 -70z m-145 -71 c0 -26 -6 -48 -15 -56 -12 -10 -18 -6 -35
22 -27 45 -25 65 8 76 37 13 42 8 42 -42z m-160 -37 c0 -39 -23 -110 -34 -106
-13 4 -76 85 -76 97 0 8 60 27 93 29 11 1 17 -6 17 -20z m-192 -61 c2 -36 -1
-47 -15 -52 -20 -8 -56 30 -72 76 l-10 27 47 -3 47 -2 3 -46z m560 -90 c14
-14 16 -74 2 -83 -14 -9 -43 13 -68 51 -12 19 -22 36 -22 39 0 10 76 5 88 -7z
m7270 -19 c64 -31 115 -86 152 -163 56 -118 43 -241 -34 -333 -27 -33 -99 -63
-114 -49 -4 5 4 15 17 25 99 67 143 161 121 258 -6 29 -14 53 -18 53 -4 0 -16
-21 -27 -48 -22 -54 -94 -130 -147 -155 -78 -37 -159 -14 -249 70 -40 38 -51
43 -64 33 -13 -10 -13 -16 0 -39 18 -35 60 -79 110 -116 66 -48 84 -66 78 -81
-3 -8 -10 -14 -15 -14 -6 0 -8 6 -5 13 4 10 -3 12 -23 9 -48 -7 -140 43 -211
114 l-64 65 24 42 c13 23 43 78 66 122 93 178 104 194 143 204 68 18 87 20
151 15 38 -2 82 -12 109 -25z m-7398 -79 c14 -14 36 -34 50 -43 31 -21 19 -35
-47 -52 -32 -9 -52 -9 -60 -3 -16 13 -17 84 -1 129 10 30 12 31 22 14 6 -11
22 -31 36 -45z m-222 -67 c35 -38 31 -50 -13 -39 -28 7 -48 37 -39 60 9 22 12
21 52 -21z m82 -49 c0 -2 -7 -4 -15 -4 -8 0 -15 4 -15 10 0 5 7 7 15 4 8 -4
15 -8 15 -10z m2903 5 c26 -14 67 -50 67 -59 0 -4 -28 -36 -63 -71 -68 -69
-115 -152 -124 -219 -3 -22 -10 -43 -15 -46 -17 -11 -84 72 -98 120 -28 103
22 223 115 274 26 15 91 15 118 1z m-1884 -94 c45 -23 108 -102 131 -161 50
-134 4 -274 -89 -274 -33 0 -87 28 -120 62 -84 86 -112 235 -62 325 35 61 83
78 140 48z m-709 -4 c0 -16 -80 -41 -128 -40 l-47 1 40 9 c31 6 109 29 133 38
1 1 2 -3 2 -8z m2030 -131 c119 -61 128 -230 19 -339 -71 -72 -167 -88 -232
-38 -71 54 -96 159 -58 243 39 86 127 154 199 154 18 0 51 -9 72 -20z m2450
-128 c23 -84 2 -148 -74 -224 -41 -41 -152 -118 -169 -118 -4 0 -4 7 0 15 3 9
8 13 11 11 3 -3 19 13 36 37 17 23 43 52 58 65 31 27 88 135 88 168 0 13 -13
49 -30 80 -16 32 -29 68 -27 82 1 23 5 21 49 -27 26 -28 52 -68 58 -89z m2232
13 c23 -42 95 -109 148 -136 65 -34 185 -34 255 0 45 22 72 27 84 15 3 -2 -8
-17 -23 -33 -40 -42 -125 -58 -223 -43 -40 7 -88 19 -106 28 -66 34 -126 94
-158 159 -27 55 -29 65 -17 84 13 21 13 21 19 -11 3 -18 13 -46 21 -63z
m-5431 27 c55 -36 71 -54 104 -119 70 -140 19 -293 -99 -293 -139 0 -265 205
-212 345 37 95 120 122 207 67z m-1334 -98 c56 -20 188 -109 237 -159 47 -49
68 -109 74 -211 4 -78 1 -97 -18 -143 -26 -59 -116 -148 -184 -181 -106 -51
-229 -42 -293 22 -30 30 -34 41 -36 94 -2 59 -2 59 28 62 82 8 135 33 190 88
69 68 71 87 5 35 -35 -28 -56 -38 -72 -34 -18 4 -20 3 -8 -6 24 -17 -65 -14
-98 3 -30 15 -107 94 -136 139 -23 34 -29 34 -51 1 -30 -46 0 -118 91 -217
l38 -40 -39 6 c-51 8 -81 38 -121 122 -28 58 -34 81 -34 137 0 144 69 246 199
295 47 18 161 11 228 -13z m2683 -279 c48 -35 48 -36 37 -71 -10 -33 -9 -37
19 -59 116 -96 369 -180 629 -210 119 -14 168 -15 325 -5 217 13 282 25 511
91 95 27 184 49 199 49 30 0 99 -45 124 -82 35 -49 3 -133 -72 -186 -38 -27
-216 -110 -262 -122 -128 -33 -164 -41 -235 -50 -44 -6 -102 -16 -130 -22
l-50 -12 35 -8 c27 -5 22 -6 -20 -3 -30 2 -49 1 -42 -2 6 -2 12 -11 12 -19 0
-13 12 -18 33 -15 4 0 7 -4 7 -10 0 -6 -24 -10 -57 -10 -156 -1 -176 -3 -158
-9 12 -4 -25 -10 -86 -14 -70 -5 -114 -4 -127 3 -10 5 -37 11 -58 12 -34 1
-88 14 -259 62 -22 6 -52 19 -67 29 -14 10 -41 21 -60 25 -18 3 -60 19 -92 35
-33 15 -64 28 -71 28 -6 0 -18 9 -28 20 -9 11 -22 20 -29 20 -7 1 -32 5 -55 9
-26 5 -43 5 -43 -1 0 -16 111 -127 158 -158 51 -34 139 -68 267 -105 50 -14
119 -34 155 -45 36 -10 87 -22 113 -25 27 -4 47 -8 45 -11 -2 -2 -58 3 -124
11 -194 23 -345 70 -528 163 -122 62 -201 132 -252 224 -27 49 -29 61 -29 153
0 89 3 106 28 154 15 30 42 70 59 90 31 36 116 111 125 111 3 0 27 -16 53 -35z
m-1761 -50 c34 -50 105 -113 137 -121 29 -8 46 0 109 50 29 23 40 27 53 19 41
-25 16 -108 -41 -143 -98 -60 -232 10 -292 152 -31 77 -9 106 34 43z m3726
-36 c21 -23 49 -67 64 -98 22 -47 26 -70 26 -146 0 -79 -3 -97 -29 -146 -37
-74 -123 -158 -211 -205 -46 -25 -65 -32 -55 -19 14 17 14 18 -10 6 l-25 -12
25 21 c14 11 55 50 93 87 74 72 128 168 145 258 8 39 10 43 11 19 1 -27 5 -32
26 -30 22 1 25 6 25 38 0 45 -9 70 -22 62 -6 -4 -8 2 -3 15 4 15 2 21 -8 21
-9 0 -18 6 -20 13 -3 6 -6 -1 -7 -18 -1 -29 -1 -29 -25 16 -13 25 -42 62 -64
82 l-40 36 27 20 c15 11 30 21 33 21 4 0 23 -19 44 -41z m-3892 17 c44 -18 83
-66 124 -151 50 -105 43 -176 -21 -210 -62 -34 -137 15 -192 125 -56 112 -31
230 54 249 1 1 17 -5 35 -13z m4142 -147 c6 -2 39 -20 75 -40 55 -31 81 -38
173 -49 59 -7 107 -16 107 -21 0 -4 30 -11 66 -14 51 -6 73 -4 103 9 35 16 42
16 101 1 49 -13 104 -16 249 -14 102 1 190 4 195 7 4 2 2 8 -5 13 -29 18 20 9
112 -21 51 -17 101 -40 112 -50 11 -13 31 -20 53 -20 21 0 33 -4 29 -10 -3 -5
-1 -10 6 -10 8 0 8 -4 -1 -15 -11 -13 -8 -13 30 0 50 18 56 16 225 -39 302
-100 354 -117 436 -140 48 -13 97 -30 110 -36 22 -12 22 -13 4 -27 -11 -7 -25
-11 -32 -9 -7 3 -12 0 -10 -6 1 -6 -11 -14 -27 -19 -16 -4 -39 -18 -53 -30
-28 -27 -40 -30 -113 -31 -50 0 -52 -1 -23 -9 18 -5 34 -13 37 -17 3 -5 -32
-27 -77 -50 -45 -23 -111 -60 -146 -82 -36 -22 -72 -40 -80 -39 -10 0 -8 4 7
9 12 5 22 14 22 20 0 6 5 8 10 5 6 -3 10 -2 10 2 0 5 25 24 55 42 31 19 58 38
61 42 10 17 -45 -11 -117 -59 -41 -27 -103 -67 -139 -89 -200 -123 -236 -146
-246 -159 -8 -10 -27 -14 -57 -13 -25 2 -51 -2 -59 -8 -17 -13 -253 -149 -335
-192 -39 -21 -66 -30 -75 -25 -7 5 -67 12 -133 16 -365 21 -398 28 -465 97
-45 46 -88 139 -75 161 3 5 0 10 -8 10 -14 0 -37 40 -37 66 0 8 -11 40 -25 70
-19 41 -25 71 -25 122 0 103 -16 177 -55 261 l-36 76 23 50 c18 40 23 68 23
140 0 50 -3 106 -7 125 -6 29 -5 32 5 19 6 -9 17 -18 22 -20z m1491 -28 c256
-78 400 -123 469 -146 39 -13 198 -65 355 -115 246 -80 289 -97 317 -125 18
-18 33 -42 33 -52 0 -19 -67 -65 -285 -193 -162 -96 -730 -441 -1043 -634 -46
-28 -97 -60 -115 -70 -18 -11 -133 -81 -257 -157 -124 -75 -340 -206 -480
-291 -334 -202 -324 -196 -477 -291 -140 -86 -536 -335 -737 -463 -66 -42
-158 -96 -205 -121 -83 -44 -88 -45 -156 -40 -74 5 -104 17 -555 217 -242 107
-539 237 -720 315 -239 103 -583 257 -780 350 -102 48 -241 112 -310 142 -69
30 -201 90 -295 133 -93 43 -219 101 -280 128 -60 28 -159 74 -220 103 -225
106 -654 301 -1069 485 -54 24 -105 49 -113 55 -23 20 -14 57 22 98 39 43 160
100 455 215 192 75 345 139 450 189 41 20 78 33 82 29 4 -4 8 -27 10 -52 l3
-44 -135 -63 c-171 -79 -324 -143 -420 -177 -41 -15 -101 -39 -133 -53 -102
-46 -78 -69 183 -179 185 -78 489 -215 700 -314 242 -114 590 -272 740 -335
69 -29 217 -94 330 -145 277 -125 583 -260 890 -391 140 -61 282 -123 315
-139 33 -15 155 -69 270 -118 116 -49 275 -119 355 -155 177 -78 202 -84 269
-58 49 18 233 123 476 271 61 37 173 104 250 150 77 45 156 93 175 105 19 12
103 62 185 110 83 48 179 107 215 130 36 24 99 63 140 87 41 25 239 144 440
265 201 121 415 248 475 283 105 60 294 173 490 292 50 30 137 81 195 113 316
177 403 245 343 270 -73 29 -283 101 -353 120 -154 42 -289 85 -364 115 -41
16 -136 48 -212 70 -76 23 -150 48 -164 55 l-25 13 30 7 c17 3 46 14 65 24 19
10 38 19 41 20 3 1 64 -17 135 -38z m-4239 -1 c74 -33 105 -117 83 -223 -32
-156 -210 -246 -308 -155 -90 84 -79 230 25 330 42 41 94 67 133 67 14 0 44
-8 67 -19z m-754 -84 c42 -17 92 -68 118 -118 22 -44 35 -123 25 -161 -10 -41
-54 -86 -90 -93 -84 -15 -197 97 -212 210 -18 130 56 206 159 162z m3327 4 c0
-5 -4 -10 -10 -10 -5 0 -10 5 -10 10 0 6 5 10 10 10 6 0 10 -4 10 -10z m-2176
-402 c15 -15 25 -28 20 -28 -4 0 12 -13 37 -28 215 -136 476 -209 864 -243 72
-6 156 -13 187 -16 41 -4 67 -1 90 10 57 27 288 32 246 6 -45 -29 177 13 303
57 115 40 245 58 238 33 -3 -8 -61 -42 -130 -77 -130 -65 -271 -107 -499 -148
-120 -22 -520 -26 -620 -6 -263 53 -455 115 -637 209 -123 62 -143 70 -143 54
0 -55 75 -146 172 -209 118 -76 367 -154 628 -196 57 -9 109 -21 115 -26 6 -5
28 -11 50 -13 22 -3 -7 -4 -65 -2 -108 4 -270 31 -375 64 -33 11 -71 21 -85
24 -116 22 -308 103 -390 165 -61 46 -129 123 -155 175 -20 40 -25 66 -25 123
0 69 18 142 41 171 12 13 44 -11 133 -99z m2236 -23 c10 -78 -2 -165 -26 -204
-9 -14 -48 -56 -87 -93 -56 -53 -98 -81 -192 -128 -66 -33 -162 -73 -214 -90
-94 -30 -133 -34 -70 -6 l34 14 -40 2 c-37 1 -38 2 -15 12 14 5 54 18 90 28
135 39 338 151 389 215 33 43 61 131 62 198 l2 62 6 -54 c4 -30 12 -56 19 -59
7 -2 12 -13 13 -25 1 -20 2 -20 9 3 4 14 8 39 8 55 1 25 -1 27 -7 10 -6 -14
-10 1 -13 50 -2 39 -2 76 0 83 9 27 24 -7 32 -73z m-60 25 c0 -13 -1 -13 -10
0 -5 8 -10 22 -10 30 0 13 1 13 10 0 5 -8 10 -22 10 -30z m-4245 21 c-9 -16
31 -31 82 -30 124 2 175 -12 236 -67 31 -29 41 -33 49 -23 7 10 8 8 5 -8 -4
-18 0 -22 27 -25 l31 -3 -34 -19 c-26 -14 -31 -20 -20 -27 8 -5 25 -9 39 -9
24 0 184 -43 338 -90 35 -11 115 -29 178 -40 63 -11 122 -24 132 -29 30 -15
103 -24 126 -14 65 30 193 66 205 59 11 -7 9 -67 -3 -85 -7 -11 -2 -12 25 -8
58 9 191 45 266 72 104 36 109 35 117 -26 11 -85 45 -159 98 -215 26 -28 48
-55 48 -61 0 -5 21 -17 48 -26 60 -19 194 -76 206 -87 4 -4 35 1 68 12 59 20
63 20 115 4 29 -10 99 -41 156 -69 56 -29 140 -68 187 -86 84 -34 87 -34 255
-36 131 -1 180 -6 214 -18 55 -21 186 -23 194 -4 4 10 27 14 79 14 89 1 139
14 198 51 25 15 81 47 125 71 44 24 118 65 165 92 47 26 108 55 137 64 50 16
53 16 100 -5 26 -12 84 -32 128 -45 144 -40 586 -211 609 -236 14 -13 -19 -41
-89 -76 -60 -31 -201 -113 -270 -158 -27 -18 -68 -42 -90 -54 -22 -12 -84 -49
-137 -84 -54 -34 -130 -81 -170 -104 l-74 -42 -49 16 c-28 9 -68 24 -90 34
-127 54 -171 71 -273 104 -62 21 -116 35 -119 31 -3 -3 2 -8 11 -11 9 -3 23
-7 31 -10 18 -5 31 -33 20 -43 -4 -4 -10 -1 -12 6 -6 17 -23 15 -23 -3 0 -10
-11 -15 -32 -16 -54 -2 -83 -14 -80 -32 2 -11 -4 -17 -18 -17 -11 0 -20 5 -20
10 0 6 -18 10 -40 10 -33 0 -40 -3 -40 -20 0 -17 -7 -20 -40 -20 -29 0 -40 4
-40 15 0 8 -9 15 -20 15 -27 0 -25 -24 3 -39 16 -9 17 -10 2 -5 -54 18 -65 17
-65 -5 0 -14 -6 -21 -20 -21 -13 0 -20 7 -20 20 0 17 -7 20 -39 20 -33 0 -40
-4 -43 -22 -3 -22 -7 -23 -80 -19 -74 3 -78 2 -78 -18 0 -18 -6 -21 -40 -21
-33 0 -40 -3 -40 -20 0 -17 -7 -20 -39 -20 -27 0 -41 -5 -45 -16 -4 -9 -4 -19
-1 -22 3 -3 5 0 5 6 0 7 9 12 21 12 15 0 19 -5 15 -18 -5 -15 3 -21 46 -32 29
-8 65 -13 81 -12 15 2 27 -2 27 -7 0 -6 13 -11 28 -11 16 0 40 -10 53 -22 19
-17 20 -20 5 -14 -12 4 -23 1 -29 -6 -6 -9 -7 -8 -3 5 3 11 0 17 -10 17 -8 0
-13 -4 -10 -8 6 -10 -328 105 -402 138 -25 12 -49 26 -53 32 -6 9 -24 7 -67
-6 l-59 -18 -65 26 c-36 14 -134 57 -219 96 -85 40 -166 76 -180 81 -32 12
-36 44 -5 34 53 -17 69 -15 31 4 -22 10 -43 17 -47 15 -4 -3 -26 9 -50 24 -24
16 -69 39 -101 51 -52 19 -60 20 -73 6 -9 -8 -21 -12 -27 -8 -7 4 -22 9 -34
11 -26 3 -133 51 -133 59 0 4 7 14 15 23 18 19 19 19 -190 95 -55 20 -146 58
-202 85 -99 47 -158 70 -138 53 6 -4 11 -14 13 -21 3 -18 -11 -13 -206 69 -90
38 -165 69 -167 69 -2 0 -16 5 -31 10 l-27 11 33 24 c19 14 42 28 53 31 18 6
18 8 -7 29 -24 20 -90 38 -146 40 -8 0 -62 19 -120 42 -404 160 -467 183 -536
188 -47 4 -124 33 -351 132 -74 32 -97 53 -58 53 15 0 203 72 405 155 133 54
167 64 155 46z m3940 -21 c-3 -5 -12 -10 -18 -10 -7 0 -6 4 3 10 19 12 23 12
15 0z m-3489 -54 c41 -22 20 -20 -58 7 -37 12 -70 27 -72 34 -5 13 81 -14 130
-41z m3432 29 c7 -6 -87 -37 -177 -60 -88 -23 -245 -35 -196 -16 11 5 37 6 57
3 39 -5 208 44 208 60 0 4 9 8 19 8 11 0 23 5 26 10 5 8 51 4 63 -5z m1962
-374 c0 -5 -7 -11 -14 -14 -10 -4 -13 -1 -9 9 6 15 23 19 23 5z m-70 -51 c-24
-15 -37 -11 -16 5 11 8 22 12 25 9 3 -3 -1 -9 -9 -14z m-2512 -177 c-10 -2
-28 -2 -40 0 -13 2 -5 4 17 4 22 1 32 -1 23 -4z m1936 -78 c-25 -19 -35 -19
-28 0 4 8 16 15 27 15 20 0 20 0 1 -15z m-59 -35 c-3 -5 -11 -10 -16 -10 -6 0
-7 5 -4 10 3 6 11 10 16 10 6 0 7 -4 4 -10z m-4105 -160 c0 -5 -2 -10 -4 -10
-3 0 -8 5 -11 10 -3 6 -1 10 4 10 6 0 11 -4 11 -10z m-600 -654 c5 -13 7 -34
4 -47 -4 -22 -3 -21 6 2 9 23 16 26 51 24 32 -2 47 -9 65 -31 32 -40 33 -106
0 -138 -56 -57 -263 -57 -216 -1 11 13 9 15 -11 15 -12 0 -33 10 -46 22 -60
56 8 177 100 178 31 0 39 -4 47 -24z m2645 -147 c25 -11 44 -23 42 -26 -3 -2
-27 7 -54 21 -59 31 -53 34 12 5z m125 -34 c0 -7 -39 -12 -49 -5 -7 4 1 7 18
8 17 0 31 -1 31 -3z m80 -41 c53 -16 71 -17 50 -4 -11 8 -8 9 14 6 16 -3 37
-1 47 5 11 5 19 7 19 4 0 -12 -70 -35 -102 -34 -18 0 -55 11 -83 24 -53 26
-34 25 55 -1z"/>
<path d="M2865 9066 c-103 -25 -179 -95 -206 -188 -12 -43 5 -42 53 2 23 22
56 48 72 56 38 21 128 30 152 15 16 -10 14 -11 -12 -6 -34 7 -69 -17 -60 -40
3 -8 -2 -16 -10 -19 -21 -8 -17 -26 6 -26 10 0 29 -4 42 -9 37 -15 62 -24 75
-27 7 -1 32 -17 57 -34 25 -18 59 -33 78 -34 18 -2 32 -7 31 -13 -1 -7 12 -15
29 -19 26 -5 35 -3 46 15 8 11 20 21 28 21 21 0 27 39 10 65 -18 27 -36 33
-36 13 0 -7 -20 21 -45 63 -53 92 -118 152 -180 168 -53 13 -65 13 -130 -3z
m138 -146 c15 -7 27 -19 27 -26 0 -6 6 -14 14 -17 8 -3 20 -16 27 -29 11 -21
9 -20 -16 5 -15 15 -32 27 -37 27 -5 0 -6 5 -3 10 4 6 -7 10 -24 10 -25 0 -31
4 -31 21 0 11 3 19 8 17 4 -2 19 -10 35 -18z m-51 -42 c-9 -9 -15 -9 -24 0 -9
9 -7 12 12 12 19 0 21 -3 12 -12z"/>
<path d="M2351 8295 c-24 -76 -26 -95 -10 -95 5 0 7 4 4 10 -3 5 3 40 15 76
11 37 18 69 16 71 -3 3 -14 -25 -25 -62z"/>
<path d="M2406 8213 c-6 -14 -5 -15 5 -6 7 7 10 15 7 18 -3 3 -9 -2 -12 -12z"/>
<path d="M2282 8091 c-6 -17 -9 -31 -6 -31 7 0 25 52 20 57 -2 2 -8 -10 -14
-26z"/>
<path d="M2261 8024 c0 -11 3 -14 6 -6 3 7 2 16 -1 19 -3 4 -6 -2 -5 -13z"/>
<path d="M2317 8005 c-4 -8 -2 -17 3 -20 6 -4 10 3 10 14 0 25 -6 27 -13 6z"/>
<path d="M6367 8479 c7 -7 15 -10 18 -7 3 3 -2 9 -12 12 -14 6 -15 5 -6 -5z"/>
<path d="M6870 8183 c0 -6 -3 -18 -6 -27 -3 -9 -2 -16 4 -16 15 0 24 32 12 44
-7 7 -10 7 -10 -1z"/>
<path d="M3560 8457 c15 -16 82 -57 70 -43 -7 10 -27 24 -44 33 -17 9 -29 13
-26 10z"/>
<path d="M5495 7159 c-150 -15 -275 -145 -278 -288 -1 -71 18 -112 85 -179 99
-99 197 -125 312 -81 71 26 120 82 145 163 27 90 61 87 61 -4 -1 -95 -68 -193
-168 -242 -58 -29 -77 -33 -142 -33 -94 1 -151 25 -219 93 l-50 50 34 -66 c41
-79 66 -104 132 -134 57 -26 165 -30 228 -9 22 8 65 39 97 68 96 92 134 227
104 369 -18 89 -41 136 -101 202 -74 82 -128 103 -240 91z m-12 -119 c58 -45
35 -165 -37 -195 -52 -22 -105 -2 -129 48 -25 49 -16 81 34 129 46 44 91 50
132 18z m137 -260 c29 -29 27 -94 -2 -114 -37 -26 -75 -20 -93 14 -21 41 -19
67 10 95 29 30 58 32 85 5z"/>
<path d="M4745 7148 c-16 -6 -48 -23 -70 -38 -161 -110 -208 -293 -122 -471
43 -90 93 -150 154 -186 66 -39 190 -45 254 -13 51 25 109 78 109 98 0 7 5 10
10 7 6 -3 10 2 10 13 0 10 9 27 20 37 11 10 20 25 20 33 0 8 -25 -9 -57 -38
-73 -67 -129 -92 -213 -93 -55 -2 -75 3 -132 31 -79 38 -139 102 -162 169 -18
52 -21 130 -6 153 10 15 14 7 54 -101 45 -123 205 -190 336 -140 67 25 115 72
164 159 60 106 47 180 -51 291 -63 73 -125 101 -218 100 -38 0 -83 -5 -100
-11z m88 -98 c56 -44 56 -128 0 -184 -21 -21 -35 -26 -77 -26 -97 1 -144 79
-96 158 41 66 123 91 173 52z m125 -282 c32 -36 38 -72 13 -97 -30 -30 -75
-27 -100 5 -27 34 -27 62 1 91 27 29 59 29 86 1z"/>
<path d="M5956 7073 c49 -115 59 -167 58 -283 -2 -135 -24 -236 -80 -362 -82
-183 -161 -270 -322 -356 -163 -87 -342 -130 -483 -118 -157 14 -361 87 -479
172 -30 21 -63 37 -73 36 -15 -3 -18 1 -13 20 3 13 3 17 0 11 -3 -7 -14 -13
-25 -13 -10 0 -19 -4 -19 -9 0 -17 -32 -21 -46 -6 -24 24 -25 18 -3 -20 36
-60 148 -173 221 -221 135 -90 307 -136 508 -135 214 0 402 59 535 167 214
174 334 422 335 690 0 121 -46 315 -102 427 -24 48 -32 48 -12 0z"/>
<path d="M4802 6323 c-36 -32 -36 -58 0 -100 47 -54 65 -68 138 -106 89 -47
154 -61 261 -55 115 7 214 51 289 129 56 60 62 88 24 118 -30 23 -46 20 -65
-16 -17 -31 -84 -79 -141 -99 -60 -22 -198 -22 -270 -1 -78 23 -120 50 -163
103 -20 24 -40 44 -45 44 -4 0 -17 -8 -28 -17z"/>
<path d="M1088 5208 c-32 -11 -36 -37 -10 -61 37 -33 97 -11 90 33 -4 28 -40
41 -80 28z"/>
<path d="M1452 6840 c-61 -37 -96 -131 -72 -190 16 -38 88 -74 130 -65 34 7
80 57 80 86 0 51 -43 77 -70 44 -29 -35 -88 3 -76 48 12 48 88 55 134 13 96
-86 47 -246 -76 -246 -39 0 -117 52 -139 92 l-18 33 -3 -27 c-4 -37 21 -81 65
-115 49 -37 135 -39 205 -5 57 28 78 68 78 146 0 154 -127 253 -238 186z"/>
<path d="M7535 6058 c-28 -16 -35 -28 -35 -64 0 -77 119 -164 226 -164 67 0
94 22 94 77 0 94 -200 199 -285 151z"/>
<path d="M7014 5989 c-119 -34 -86 -171 60 -244 55 -28 145 -34 190 -14 37 17
51 59 33 100 -44 103 -191 185 -283 158z"/>
<path d="M6655 5761 c94 -25 204 -112 412 -325 91 -92 173 -187 204 -233 61
-94 63 -96 53 -58 -4 17 -11 32 -16 33 -15 6 -8 20 13 25 l21 6 -20 29 c-23
32 -407 404 -468 453 -54 44 -109 67 -174 73 -38 4 -46 3 -25 -3z"/>
<path d="M6526 5600 c-41 -13 -85 -58 -96 -101 -20 -72 25 -194 83 -229 80
-49 164 -5 186 98 21 99 -20 197 -96 228 -36 16 -37 16 -77 4z"/>
<path d="M8055 5558 c-29 -16 -35 -28 -35 -69 0 -46 62 -119 131 -154 68 -35
150 -35 184 0 27 26 31 49 14 92 -14 37 -75 100 -121 124 -42 21 -140 26 -173
7z"/>
<path d="M7505 5461 c-41 -18 -58 -48 -52 -92 12 -89 118 -168 235 -176 58 -4
71 -2 95 17 61 49 20 159 -85 223 -35 22 -62 30 -110 33 -35 2 -72 0 -83 -5z"/>
<path d="M8280 5163 c-14 -3 -86 -20 -160 -38 -74 -18 -170 -39 -213 -46 -62
-9 -77 -15 -75 -28 5 -22 28 -18 246 35 115 29 207 46 250 46 37 1 54 3 39 6
-16 2 -31 10 -34 18 -5 14 -9 15 -53 7z"/>
<path d="M7004 5121 c-11 -5 -33 -23 -47 -41 -97 -115 -28 -300 111 -300 92 0
142 60 142 170 0 112 -44 171 -132 177 -29 1 -62 -1 -74 -6z"/>
<path d="M7335 5096 c3 -10 13 -48 22 -83 8 -35 17 -62 20 -60 6 7 -19 111
-34 137 -8 14 -12 17 -8 6z"/>
<path d="M6582 5030 c-18 -11 -37 -32 -42 -46 -13 -34 -13 -130 1 -157 50 -97
166 -110 219 -25 17 27 20 44 17 94 -3 34 -12 75 -22 91 -36 62 -111 80 -173
43z"/>
<path d="M6181 5014 c-68 -57 -67 -198 2 -272 50 -54 112 -64 166 -26 30 21
60 89 61 135 0 49 -52 150 -89 172 -44 26 -103 22 -140 -9z"/>
<path d="M8270 4988 c-69 -42 -130 -127 -137 -191 -5 -39 -2 -49 20 -71 32
-32 58 -32 122 -2 91 43 155 131 155 213 0 44 -6 55 -37 72 -35 18 -66 13
-123 -21z"/>
<path d="M7751 4879 c-91 -45 -161 -142 -161 -222 0 -10 11 -29 25 -42 76 -77
273 41 306 182 11 47 -3 86 -37 102 -39 17 -66 13 -133 -20z"/>
<path d="M7857 4576 c-87 -43 -136 -104 -139 -173 -4 -99 120 -88 219 20 52
57 72 118 48 153 -20 31 -64 31 -128 0z"/>
<path d="M6674 4531 c-67 -41 -86 -188 -34 -260 30 -43 100 -75 143 -66 76 16
117 70 117 155 0 142 -123 234 -226 171z"/>
<path d="M7975 4345 c-123 -37 -215 -127 -215 -212 0 -48 25 -73 72 -73 76 0
201 99 234 186 16 41 16 49 3 72 -19 34 -46 42 -94 27z"/>
<path d="M7433 4254 c-48 -18 -123 -80 -152 -128 -27 -43 -28 -116 -3 -139 60
-54 203 18 265 132 65 118 15 179 -110 135z"/>
<path d="M4111 5447 c-1 -48 26 -145 57 -202 l16 -30 6 30 c4 18 1 36 -6 45
-7 8 -11 29 -8 45 3 28 3 28 -5 5 -8 -22 -15 -14 -12 15 0 6 -10 39 -24 75
l-24 65 0 -48z"/>
<path d="M4830 5431 c22 -14 117 -26 105 -13 -5 5 -35 13 -65 16 -36 5 -50 4
-40 -3z"/>
<path d="M3100 5156 c-36 -14 -123 -45 -195 -71 -162 -57 -275 -104 -253 -105
9 0 20 -5 24 -12 4 -6 3 -8 -2 -5 -6 3 -16 2 -23 -2 -7 -5 15 -10 53 -13 154
-13 229 -108 131 -168 -54 -34 -178 -55 -245 -42 -78 14 -126 36 -146 67 -16
25 -16 27 3 53 10 15 39 37 63 49 114 59 53 54 -110 -7 -160 -61 -228 -99
-215 -120 11 -17 94 -56 201 -93 54 -19 178 -66 274 -105 156 -62 267 -104
491 -183 l67 -23 78 36 c44 20 113 50 154 66 41 17 125 52 185 80 165 75 259
115 483 204 213 86 230 98 175 129 -16 9 -59 24 -98 34 -38 10 -167 47 -285
83 -118 36 -244 74 -280 84 -139 42 -156 47 -200 64 -30 12 -82 19 -155 21
-98 3 -117 1 -175 -21z m272 4 c75 -21 92 -78 38 -124 -40 -33 -89 -46 -173
-46 -87 0 -147 15 -180 46 -40 37 -35 62 17 84 102 46 220 61 298 40z m567
-191 c24 -5 57 -19 73 -30 25 -18 29 -27 26 -63 -3 -39 -6 -42 -60 -69 -104
-53 -302 -44 -365 15 -26 24 -31 74 -10 102 34 46 221 72 336 45z m-582 -265
c85 -23 108 -82 53 -134 -38 -36 -106 -54 -200 -53 -90 0 -145 16 -182 51 -66
61 -9 132 120 151 67 10 136 5 209 -15z"/>
<path d="M8662 4671 c-10 -6 -10 -10 3 -21 8 -7 15 -10 15 -7 0 3 3 12 6 21 7
17 -3 20 -24 7z"/>
<path d="M2325 4274 c-40 -40 3 -124 64 -124 25 0 32 5 37 26 15 61 -62 136
-101 98z"/>
<path d="M2834 4065 c-16 -40 28 -135 61 -135 24 0 48 47 40 77 -14 58 -86 98
-101 58z"/>
<path d="M1790 3748 c-30 -38 -74 -84 -98 -100 -44 -30 -149 -71 -214 -83 -21
-4 -38 -11 -38 -16 0 -4 17 -26 38 -49 37 -38 42 -40 97 -40 45 0 70 7 118 32
80 43 152 114 166 164 18 63 13 165 -8 164 -3 -1 -31 -33 -61 -72z"/>
<path d="M6559 3379 l-24 -20 28 17 c15 9 27 18 27 20 0 8 -8 4 -31 -17z"/>
<path d="M5955 2649 c-45 -21 -38 -25 12 -7 18 7 33 16 33 20 0 4 -1 8 -2 7
-2 0 -21 -9 -43 -20z"/>
<path d="M6257 2437 c-17 -5 -26 -14 -23 -22 3 -8 -4 -15 -17 -18 -20 -4 -20
-4 2 -6 24 -1 24 -2 5 -15 -14 -11 -21 -11 -27 -3 -5 8 -7 6 -5 -5 2 -9 -6
-24 -17 -33 -11 -9 -1 -6 22 6 51 27 113 77 113 90 0 6 -4 8 -9 5 -5 -4 -11
-2 -13 2 -1 5 -16 5 -31 -1z"/>
<path d="M6095 2305 c-16 -8 -61 -26 -100 -40 -38 -14 -54 -22 -35 -19 43 8
158 53 166 65 6 11 6 11 -31 -6z"/>
<path d="M5413 2101 c-30 -31 -76 -49 -118 -45 -39 4 -40 4 -15 -11 37 -21 45
-19 117 30 36 25 58 45 50 45 -9 0 -24 -8 -34 -19z"/>
<path d="M5275 1985 l-30 -25 30 15 c17 7 42 12 58 11 33 -4 36 9 5 18 -32 8
-30 9 -63 -19z"/>
<path d="M5387 1969 c7 -7 15 -10 18 -7 3 3 -2 9 -12 12 -14 6 -15 5 -6 -5z"/>
<path d="M5130 1916 c-36 -19 -110 -56 -165 -84 -129 -65 -217 -115 -185 -106
14 5 35 8 47 7 13 0 20 3 17 8 -3 5 3 12 13 16 10 3 25 12 34 19 23 20 287
153 292 148 2 -3 7 2 10 11 4 8 5 15 4 14 -1 0 -31 -15 -67 -33z"/>
<path d="M5598 1883 c7 -3 16 -2 19 1 4 3 -2 6 -13 5 -11 0 -14 -3 -6 -6z"/>
<path d="M4095 1832 c6 -5 21 -13 35 -17 17 -5 22 -4 15 3 -5 5 -21 13 -35 17
-17 5 -22 4 -15 -3z"/>
<path d="M4735 1710 c-3 -5 -1 -10 4 -10 6 0 11 5 11 10 0 6 -2 10 -4 10 -3 0
-8 -4 -11 -10z"/>
<path d="M6074 9180 c-35 -14 -73 -73 -80 -121 -5 -39 -3 -49 21 -77 36 -43
83 -51 129 -23 44 28 79 96 70 138 -12 61 -88 106 -140 83z m50 -128 c-6 -9
-20 -17 -30 -17 -25 0 -31 35 -8 52 25 18 54 -8 38 -35z"/>
<path d="M1376 8595 c-21 -7 -59 -33 -83 -57 -101 -99 -92 -246 20 -359 61
-61 116 -83 207 -83 130 1 182 40 201 153 18 99 -1 188 -55 254 -75 94 -186
129 -290 92z m169 -130 c92 -70 101 -216 15 -260 -16 -8 -44 -15 -63 -15 -46
0 -120 51 -143 98 -69 140 71 269 191 177z"/>
<path d="M1536 8278 c-18 -14 -45 -22 -68 -23 -39 0 -39 0 -17 -17 12 -10 28
-18 36 -18 23 0 72 29 83 49 20 38 9 41 -34 9z"/>
<path d="M1865 8265 c-64 -63 8 -156 88 -114 45 24 49 63 11 108 -32 38 -66
40 -99 6z"/>
<path d="M1425 7863 c-75 -39 -114 -105 -115 -191 0 -60 8 -78 59 -141 43 -53
82 -71 153 -71 40 0 65 7 105 30 154 88 134 306 -34 377 -43 18 -131 16 -168
-4z m123 -86 c36 -28 -12 -97 -68 -97 -39 0 -56 -23 -42 -55 7 -14 16 -25 22
-25 5 0 10 -6 10 -12 -1 -25 -49 43 -56 78 -16 86 71 159 134 111z"/>
<path d="M1170 7340 c-24 -24 -23 -48 3 -64 27 -17 52 4 52 45 0 41 -24 50
-55 19z"/>
<path d="M9262 6934 c-31 -21 -53 -68 -55 -116 -1 -34 4 -45 32 -70 30 -27 39
-30 83 -26 62 6 97 38 105 95 13 95 -91 169 -165 117z m86 -91 c-3 -30 -28
-49 -52 -40 -22 9 -21 63 1 76 27 15 55 -5 51 -36z"/>
<path d="M909 6281 c-40 -40 -41 -97 -2 -136 24 -23 34 -26 72 -22 53 6 89 39
98 90 5 31 1 40 -25 67 -42 42 -101 42 -143 1z"/>
<path d="M9076 5640 c-92 -81 -87 -226 9 -266 112 -46 227 22 227 135 0 130
-145 210 -236 131z"/>
<path d="M8935 5123 c-20 -30 -13 -49 28 -73 56 -31 117 42 67 82 -33 27 -74
23 -95 -9z"/>
<path d="M9274 4175 c-15 -23 -15 -27 0 -50 19 -30 46 -32 69 -7 22 24 21 38
-3 62 -27 27 -46 25 -66 -5z"/>
<path d="M8996 3881 c-21 -23 -18 -60 6 -75 25 -15 72 4 76 31 8 55 -46 84
-82 44z"/>
<path d="M9129 3761 c-44 -44 -51 -84 -24 -147 37 -89 180 -76 221 21 21 52
-6 124 -56 150 -53 27 -98 20 -141 -24z"/>
<path d="M948 3493 c-33 -21 -48 -53 -48 -104 0 -33 7 -48 34 -75 29 -29 41
-34 81 -34 90 0 144 92 99 170 -34 57 -111 77 -166 43z"/>
<path d="M8949 2425 c-37 -20 -79 -103 -79 -158 0 -65 44 -144 95 -171 60 -31
143 -28 191 9 20 15 42 43 50 61 18 43 18 137 0 172 -19 36 -65 78 -99 91 -39
15 -127 13 -158 -4z m131 -95 c29 -29 26 -66 -7 -85 -24 -14 -25 -16 -5 -12
22 5 30 -7 12 -18 -17 -10 -11 -25 8 -18 13 5 14 3 6 -6 -20 -22 -88 -25 -104
-6 -12 15 -11 19 9 34 l22 17 -20 19 c-25 22 -27 52 -4 77 21 24 58 23 83 -2z"/>
<path d="M8591 2083 c-97 -49 -95 -210 3 -257 19 -9 42 -16 51 -16 37 0 86 34
111 77 22 37 25 51 19 89 -14 95 -104 148 -184 107z"/>
<path d="M8860 1889 c-14 -25 -8 -44 19 -58 15 -8 23 -7 35 5 20 20 20 38 0
58 -21 22 -41 20 -54 -5z"/>
<path d="M1850 1770 c-36 -36 -17 -100 31 -100 45 0 78 77 47 108 -18 18 -56
14 -78 -8z"/>
<path d="M8037 1569 c-61 -14 -109 -44 -173 -106 -69 -66 -99 -124 -114 -215
-20 -131 18 -237 123 -335 95 -89 192 -116 313 -88 249 58 369 338 241 563
-24 43 -101 115 -157 149 -62 37 -156 50 -233 32z m141 -134 c26 -14 52 -25
58 -25 18 0 74 -68 95 -114 12 -26 18 -64 18 -101 0 -111 -44 -187 -133 -229
-99 -47 -210 -30 -284 44 -45 45 -63 94 -63 169 0 86 24 153 72 201 81 82 154
99 237 55z"/>
<path d="M7906 1227 c-24 -90 18 -177 105 -221 73 -36 121 -34 189 7 63 37 97
89 107 163 l6 49 -46 -51 c-59 -65 -103 -80 -188 -63 -76 15 -118 43 -145 96
-20 39 -22 40 -28 20z"/>
<path d="M1787 1463 c-4 -3 -7 -19 -7 -35 0 -21 5 -28 19 -28 27 0 54 39 39
57 -11 14 -40 17 -51 6z"/>
<path d="M2959 1125 c-76 -33 -110 -167 -62 -246 24 -38 94 -79 137 -79 34 0
94 31 126 65 21 22 25 36 25 88 0 74 -27 133 -72 159 -43 26 -111 31 -154 13z
m69 -87 c19 -19 14 -34 -13 -46 -37 -17 -45 -15 -45 11 0 24 17 47 35 47 6 0
16 -5 23 -12z"/>
</g>
</svg>
