<svg width="24" height="24" viewBox="0 0 24 24" fill="none" xmlns="http://www.w3.org/2000/svg">
<path d="M4.07326 11.046L11.3356 4.59055C11.7145 4.25376 12.2855 4.25376 12.6644 4.59055L19.9267 11.046C20.4471 11.5086 20.3473 12.3481 19.733 12.6758L19.5294 12.7843C19.2035 12.9581 19 13.2974 19 13.6667V19C19 19.5523 18.5523 20 18 20H15.4C14.8477 20 14.4 19.5523 14.4 19V15.6667C14.4 15.1144 13.9523 14.6667 13.4 14.6667H12H10.6C10.0477 14.6667 9.6 15.1144 9.6 15.6667V19C9.6 19.5523 9.15229 20 8.6 20H6C5.44772 20 5 19.5523 5 19V13.6667C5 13.2974 4.79645 12.9581 4.47059 12.7843L4.26704 12.6758C3.65268 12.3481 3.55287 11.5086 4.07326 11.046Z" fill="#17171F" stroke="#17171F"/>
</svg>
