<svg width="24" height="24" viewBox="0 0 24 24" fill="none" xmlns="http://www.w3.org/2000/svg">
<path fill-rule="evenodd" clip-rule="evenodd" d="M10.4475 20H13.35C13.745 20 14.0607 19.6713 14.0447 19.2766L14.0406 19.1746C13.9728 17.5016 15.8421 16.4674 17.2234 17.4137C17.5492 17.6368 17.9959 17.5356 18.1937 17.1939L19.633 14.7078C19.8312 14.3656 19.6969 13.927 19.3411 13.7544C17.838 13.0252 17.799 10.898 19.2742 10.114L19.3483 10.0747C19.7017 9.88689 19.8238 9.44019 19.6151 9.09873L18.199 6.7814C17.9962 6.44949 17.5577 6.35331 17.2346 6.56982C15.8393 7.50464 13.9732 6.45904 14.042 4.78098L14.0444 4.72237C14.0605 4.32829 13.7454 4 13.351 4H10.4582C10.065 4 9.75563 4.33728 9.78737 4.72918C9.92313 6.4059 8.06584 7.50996 6.66534 6.57808C6.33777 6.36013 5.89384 6.46934 5.70478 6.81439L4.33025 9.32305C4.15062 9.65089 4.28233 10.0623 4.61894 10.2249C6.07284 10.9271 6.10088 12.9879 4.66662 13.7294L4.61702 13.755C4.28107 13.9287 4.1585 14.348 4.34799 14.6753L5.82176 17.2209C6.01116 17.548 6.43887 17.6449 6.75073 17.4313C8.10336 16.5047 9.92577 17.5615 9.79345 19.1957L9.78637 19.2832C9.7551 19.6693 10.0601 20 10.4475 20ZM11.998 15.356C13.8526 15.356 15.356 13.8526 15.356 11.998C15.356 10.1434 13.8526 8.64 11.998 8.64C10.1434 8.64 8.63994 10.1434 8.63994 11.998C8.63994 13.8526 10.1434 15.356 11.998 15.356Z" fill="#17171F"/>
<path d="M14.0447 19.2766L13.5451 19.2968L14.0447 19.2766ZM14.0406 19.1746L13.541 19.1948V19.1948L14.0406 19.1746ZM17.2234 17.4137L17.506 17.0012L17.506 17.0012L17.2234 17.4137ZM18.1937 17.1939L18.6264 17.4445H18.6264L18.1937 17.1939ZM19.633 14.7078L19.2003 14.4573L19.633 14.7078ZM19.3411 13.7544L19.5593 13.3046V13.3046L19.3411 13.7544ZM19.2742 10.114L19.0396 9.6725V9.6725L19.2742 10.114ZM19.3483 10.0747L19.5829 10.5162L19.5829 10.5162L19.3483 10.0747ZM19.6151 9.09873L19.1885 9.35945L19.1885 9.35945L19.6151 9.09873ZM18.199 6.7814L17.7723 7.04213V7.04213L18.199 6.7814ZM17.2346 6.56982L16.9563 6.15444L17.2346 6.56982ZM14.042 4.78098L13.5424 4.7605V4.7605L14.042 4.78098ZM14.0444 4.72237L14.544 4.74285V4.74284L14.0444 4.72237ZM9.78737 4.72918L10.2857 4.68883V4.68883L9.78737 4.72918ZM6.66534 6.57808L6.94232 6.16181H6.94232L6.66534 6.57808ZM5.70478 6.81439L5.26629 6.57413V6.57414L5.70478 6.81439ZM4.33025 9.32305L4.76874 9.56331L4.76874 9.56331L4.33025 9.32305ZM4.61894 10.2249L4.40148 10.6751H4.40148L4.61894 10.2249ZM4.66662 13.7294L4.437 13.2852L4.43699 13.2852L4.66662 13.7294ZM4.61702 13.755L4.84665 14.1992L4.84665 14.1992L4.61702 13.755ZM4.34799 14.6753L3.91528 14.9258H3.91528L4.34799 14.6753ZM5.82176 17.2209L6.25447 16.9704H6.25447L5.82176 17.2209ZM6.75073 17.4313L7.03329 17.8438L7.03329 17.8438L6.75073 17.4313ZM9.79345 19.1957L10.2918 19.2361V19.2361L9.79345 19.1957ZM9.78637 19.2832L9.288 19.2428L9.288 19.2428L9.78637 19.2832ZM13.35 19.5H10.4475V20.5H13.35V19.5ZM13.5451 19.2968C13.5496 19.4077 13.4609 19.5 13.35 19.5V20.5C14.0291 20.5 14.5718 19.9349 14.5443 19.2564L13.5451 19.2968ZM13.541 19.1948L13.5451 19.2968L14.5443 19.2564L14.5402 19.1544L13.541 19.1948ZM17.506 17.0012C15.7852 15.8224 13.4566 17.1107 13.541 19.1948L14.5402 19.1544C14.4891 17.8925 15.899 17.1125 16.9409 17.8262L17.506 17.0012ZM17.761 16.9434C17.709 17.0332 17.5916 17.0598 17.506 17.0012L16.9409 17.8262C17.5067 18.2138 18.2828 18.038 18.6264 17.4445L17.761 16.9434ZM19.2003 14.4573L17.761 16.9434L18.6264 17.4445L20.0657 14.9584L19.2003 14.4573ZM19.1228 14.2043C19.2173 14.2501 19.2529 14.3665 19.2003 14.4573L20.0657 14.9584C20.4094 14.3647 20.1765 13.604 19.5593 13.3046L19.1228 14.2043ZM19.0396 9.6725C17.2031 10.6484 17.2518 13.2964 19.1228 14.2043L19.5593 13.3046C18.4243 12.7539 18.3948 11.1475 19.5089 10.5556L19.0396 9.6725ZM19.1137 9.63315L19.0396 9.6725L19.5089 10.5556L19.5829 10.5162L19.1137 9.63315ZM19.1885 9.35945C19.247 9.45521 19.2128 9.58048 19.1137 9.63315L19.5829 10.5162C20.1906 10.1933 20.4006 9.42517 20.0418 8.838L19.1885 9.35945ZM17.7723 7.04213L19.1885 9.35945L20.0418 8.838L18.6256 6.52068L17.7723 7.04213ZM17.5129 6.98521C17.5998 6.92696 17.7178 6.95283 17.7723 7.04213L18.6256 6.52068C18.2745 5.94615 17.5156 5.77966 16.9563 6.15444L17.5129 6.98521ZM13.5424 4.7605C13.4569 6.84743 15.7777 8.1478 17.5129 6.98521L16.9563 6.15444C15.901 6.86148 14.4896 6.07065 14.5416 4.80145L13.5424 4.7605ZM13.5448 4.70189L13.5424 4.7605L14.5416 4.80146L14.544 4.74285L13.5448 4.70189ZM13.351 4.5C13.4613 4.5 13.5493 4.59176 13.5448 4.7019L14.544 4.74284C14.5718 4.06483 14.0296 3.5 13.351 3.5V4.5ZM10.4582 4.5H13.351V3.5H10.4582V4.5ZM10.2857 4.68883C10.2774 4.58631 10.3588 4.5 10.4582 4.5V3.5C9.77121 3.5 9.23383 4.08825 9.289 4.76954L10.2857 4.68883ZM6.38836 6.99436C8.14047 8.16018 10.4548 6.7772 10.2857 4.68883L9.289 4.76954C9.39143 6.0346 7.99122 6.85974 6.94232 6.16181L6.38836 6.99436ZM6.14327 7.05465C6.19151 6.96661 6.30478 6.93875 6.38836 6.99436L6.94232 6.16181C6.37076 5.78151 5.59617 5.97207 5.26629 6.57413L6.14327 7.05465ZM4.76874 9.56331L6.14327 7.05465L5.26629 6.57414L3.89176 9.0828L4.76874 9.56331ZM4.8364 9.77467C4.75751 9.73657 4.72665 9.64014 4.76874 9.56331L3.89176 9.0828C3.5746 9.66164 3.80714 10.3881 4.40148 10.6751L4.8364 9.77467ZM4.89625 14.1735C6.69655 13.2428 6.66135 10.6561 4.8364 9.77467L4.40148 10.6751C5.48433 11.1981 5.50521 12.733 4.437 13.2852L4.89625 14.1735ZM4.84665 14.1992L4.89626 14.1735L4.43699 13.2852L4.38739 13.3109L4.84665 14.1992ZM4.7807 14.4248C4.73426 14.3445 4.7643 14.2418 4.84665 14.1992L4.38739 13.3109C3.79784 13.6157 3.58275 14.3514 3.91528 14.9258L4.7807 14.4248ZM6.25447 16.9704L4.7807 14.4248L3.91528 14.9258L5.38905 17.4714L6.25447 16.9704ZM6.46817 17.0188C6.39643 17.0679 6.29804 17.0456 6.25447 16.9704L5.38905 17.4714C5.72428 18.0504 6.4813 18.2219 7.03329 17.8438L6.46817 17.0188ZM10.2918 19.2361C10.4581 17.1824 8.16796 15.8544 6.46817 17.0188L7.03329 17.8438C8.03876 17.155 9.39344 17.9406 9.29508 19.1553L10.2918 19.2361ZM10.2847 19.3235L10.2918 19.2361L9.29508 19.1553L9.288 19.2428L10.2847 19.3235ZM10.4475 19.5C10.3521 19.5 10.277 19.4186 10.2847 19.3235L9.288 19.2428C9.23316 19.9201 9.76801 20.5 10.4475 20.5V19.5ZM14.856 11.998C14.856 13.5765 13.5764 14.856 11.998 14.856V15.856C14.1287 15.856 15.856 14.1288 15.856 11.998H14.856ZM11.998 9.14C13.5764 9.14 14.856 10.4196 14.856 11.998H15.856C15.856 9.8673 14.1287 8.14 11.998 8.14V9.14ZM9.13994 11.998C9.13994 10.4196 10.4195 9.14 11.998 9.14V8.14C9.86724 8.14 8.13994 9.8673 8.13994 11.998H9.13994ZM11.998 14.856C10.4195 14.856 9.13994 13.5765 9.13994 11.998H8.13994C8.13994 14.1288 9.86724 15.856 11.998 15.856V14.856Z" fill="#17171F"/>
</svg>
