<svg width="24" height="24" viewBox="0 0 24 24" fill="none" xmlns="http://www.w3.org/2000/svg">
<path d="M13.3501 20H10.4476C10.0601 20 9.75517 19.6693 9.78644 19.2832L9.79352 19.1957C9.92584 17.5615 8.10343 16.5047 6.7508 17.4313C6.43894 17.6449 6.01123 17.548 5.82183 17.2209L4.34806 14.6753C4.15857 14.348 4.28114 13.9287 4.61709 13.755L4.6667 13.7294C6.10095 12.9879 6.07291 10.9271 4.61902 10.2249C4.2824 10.0623 4.1507 9.65089 4.33032 9.32305L5.70485 6.81439C5.89391 6.46934 6.33784 6.36013 6.66541 6.57808C8.06592 7.50996 9.9232 6.4059 9.78744 4.72918C9.75571 4.33728 10.0651 4 10.4582 4H13.3511C13.7455 4 14.0606 4.32829 14.0445 4.72237L14.0421 4.78098C13.9733 6.45904 15.8394 7.50464 17.2347 6.56982C17.5578 6.35331 17.9962 6.44949 18.1991 6.7814L19.6152 9.09873C19.8239 9.44019 19.7017 9.88689 19.3484 10.0747L19.2743 10.114C17.7991 10.898 17.8381 13.0252 19.3411 13.7544C19.697 13.927 19.8312 14.3656 19.6331 14.7078L18.1938 17.1939C17.9959 17.5356 17.5492 17.6368 17.2235 17.4137C15.8422 16.4674 13.9729 17.5016 14.0407 19.1746L14.0448 19.2766C14.0608 19.6713 13.7451 20 13.3501 20Z" stroke="#17171F"/>
<circle cx="11.9982" cy="11.9979" r="2.85802" stroke="#17171F"/>
</svg>
